<?xml version="1.0" encoding="UTF-8"?>
<svg version="1.0" viewBox="0 0 868.44 924.21" xmlns="http://www.w3.org/2000/svg">
 <g transform="translate(33.495 -95.293)">
  <path d="m380.48 1014.3c-4.0394-11.346-4.973-15.018-5.978-23.508-0.82069-6.933-1.8556-9.2288-4.7935-10.634-3.5105-1.6793-9.1487-15.017-9.1487-21.643 0-3.3189-4.4263-5.0218-5.4898-2.1121-0.45739 1.2514-4.6217 3.23-9.254 4.3967-7.1079 1.7903-8.8589 1.7254-11.219-0.41552-1.5382-1.3953-4.4349-2.9548-6.4371-3.4657-4.1445-1.0574-3.6721-2.2297-8.6899 21.562-1.9495 9.2435-4.225 17.248-5.0567 17.787-0.83166 0.53972-1.5121 2.7935-1.5121 5.0084 0 3.7898-2.7627 6.1554-7.1189 6.0953-1.1015-0.015-0.86903-0.7393 0.54527-1.699 2.1207-1.4389 2.0741-1.6763-0.33362-1.6989-4.2814-0.04-6.1137-9.8983-4.5504-24.482 0.74533-6.9529 2.1182-14.742 3.0509-17.309 0.95763-2.6359 1.2211-8.6441 0.60524-13.803l-1.0905-9.1359-1.8038 8.6211c-1.9042 9.101-6.2439 12.373-9.7445 7.3465-0.9671-1.3886-3.4195-3.0782-5.4497-3.7548-2.0302-0.67655-3.6914-1.9542-3.6914-2.8392 0-3.8736-3.119-1.1481-3.5885 3.1358-0.35944 3.2798-1.408 4.6709-3.396 4.5053-1.5818-0.1318-2.876 0.74368-2.876 1.9455s-1.0112 3.0662-2.2471 4.1431c-2.7448 2.3917-5.2813-0.26414-6.4104-6.7117-0.62458-3.5667-0.79413-3.3207-0.97918 1.4206-0.17428 4.4656-0.86006 5.6068-3.0998 5.1582-2.442-0.48906-3.0005-3.1767-3.7015-17.812l-0.82553-17.236-1.3453 12.078c-1.6638 14.937-2.2522 16.922-4.571 15.417-1.0113-0.65624-2.4129-0.21775-3.1147 0.9744-1.9093 3.2436-4.8996 0.43153-5.154-4.8468-0.19603-4.0667-0.31224-4.1611-0.93601-0.76089-0.74778 4.0762-2.8739 5.0757-4.5912 2.1583-0.55812-0.94814-0.12681-11.236 0.95846-22.862 2.5987-27.838 2.6767-32.788 0.52875-33.55-1.2137-0.43029-2.1624 7.3621-2.9171 23.961-0.61514 13.529-1.7539 25.266-2.5305 26.081-0.78713 0.82641-2.5267-0.18832-3.9307-2.2928l-2.5186-3.7754-0.5475 4.0613c-0.30113 2.2337-1.6568 4.0613-3.0126 4.0613-1.7853 0-2.3729-1.6653-2.1307-6.039 0.1839-3.3215 0.83828-14.275 1.4542-24.342 0.70075-11.453 0.51464-18.695-0.49734-19.352-1.0007-0.64932-2.0042 6.0534-2.6325 17.582-1.102 20.221-1.9956 24.387-5.2312 24.387-1.6406 0-1.9184-3.9866-1.2445-17.852 0.54704-11.254 0.21422-19.066-0.90052-21.137-1.4791-2.7477-1.7455-2.1563-1.6291 3.6168 0.37459 18.569-0.551 36.498-2.0042 38.822-3.2187 5.1478-4.9155-2.0415-4.0723-17.254 0.54061-9.7539 0.30074-13.51-0.71615-11.215-0.84095 1.898-1.5891 6.5566-1.6626 10.353-0.22092 11.413-2.0408 19.842-4.284 19.842-1.1622 0-2.4861-0.97056-2.942-2.1568s-0.88729 0.43136-0.95865 3.5946c-0.14722 6.5258-3.8835 6.8722-4.781 0.4433-0.50604-3.625-0.68647-3.6811-2.6719-0.83033-1.9611 2.8159-2.3432 2.6227-4.8406-2.4477-3.0998-6.2936-4.3624-7.11-3.089-1.9973 0.50641 2.0332-0.33601 4.911-2.0041 6.8462-4.0946 4.7502-8.9946 1.7198-9.1674-5.6696-0.0714-3.0508-0.50275-4.5764-0.95865-3.3902s-1.8074 2.1568-3.0032 2.1568c-1.2377 0-1.8774 1.3006-1.4851 3.0195 0.37907 1.6607-4e-3 4.1342-0.8503 5.4967-2.2405 3.6052-5.8981-0.10172-9.2834-9.4085-2.9155-8.015-2.2164-7.8759-12.356-2.4596-2.4295 1.2978-4.0479 1.2736-5.6056-0.0838-1.587-1.3828-2.4968-1.387-3.3044-0.0153-1.9346 3.2864-5.2455-1.2484-6.6376-9.0911-1.0508-5.92-1.4266-6.4848-1.9876-2.9869-0.96057 5.9892-3.4515 8.3761-5.387 5.1619-1.191-1.9778-1.5556-1.4751-1.575 2.1712-0.0162 3.0557-0.90277 4.7449-2.4903 4.7449-1.3558 0-2.4651-0.69017-2.4651-1.5337 0-0.84354-1.1918-1.4259-2.6485-1.2941-1.4567 0.13181-3.4904-1.3132-4.5194-3.2112s-2.0634-3.7824-2.2987-4.1876c-0.23532-0.40522-1.4173 0.68396-2.6267 2.4204-2.6603 3.8198-5.9748 2.1213-6.0094-3.0796-0.02025-3.0406-0.32844-3.2768-1.575-1.2067-2.9198 4.8488-4.7226-0.63349-9.3018-28.286-2.499-15.091-4.8375-26.513-5.1966-25.382-0.35913 1.1312 0.50017 8.8197 1.9095 17.086 1.4094 8.2659 3.0554 19.882 3.6578 25.813 0.93602 9.2156 0.71276 10.784-1.5351 10.784-1.5557 0-3.2605-2.2912-4.1726-5.6077l-1.5422-5.6077-0.14822 4.8887c-0.0921 3.0374-0.909 4.6225-2.1572 4.1857-2.5772-0.90193-4.1872-7.0274-4.426-16.839-0.19095-7.8449-2.2746-13.704-3.8948-10.951-0.48408 0.82237-0.23923 7.3109 0.54412 14.419s1.4567 16.669 1.4964 21.246c0.06084 7.0158-0.37932 8.2324-2.8038 7.7493-2.2221-0.44276-3.0934-2.9232-3.8322-10.91-0.67712-7.3196-1.0369-8.4485-1.2326-3.8671-0.15195 3.5587-0.92525 6.4704-1.7185 6.4704-3.1044 0-4.7282-4.8406-5.7756-17.217-0.967-11.57-2.9-17.56-4.96-15.4-0.40821 0.42858 0.57082 7.9548 2.1756 16.725 2.5407 13.885 2.6101 16.214 0.53697 18.02-3.7161 3.238-6.3226-2.0634-7.4949-15.244-0.58938-6.6266-1.9926-12.256-3.3366-13.385-1.2757-1.0719-2.735-3.1136-3.243-4.5371-0.50796-1.4235-0.4168 0.90585 0.20257 5.1763 0.61935 4.2704 1.1348 11.258 1.1453 15.529 0.01819 7.3413-0.22705 7.7607-4.5001 7.6964-3.5598-0.0536-4.5194 0.72587-4.5194 3.6709 0 5.3092-4.1839 8.6852-7.3475 5.9286-1.8167-1.583-2.3832-5.9135-2.2799-17.43 0.144-16.12-1.925-31.25-6.8241-49.9-1.6201-6.17-3.4321-15.6-4.0267-20.96-1.6159-14.57-4.4132-22.43-3.2871-9.24 1.6493 19.319 3.8897 62.031 4.3203 82.364 0.45452 21.46-0.90266 26.49-5.9585 22.085-2.1105-1.839-2.5348-7.3542-2.5348-32.953 0-18.635-0.64729-31.165-1.6434-31.811-1.0083-0.65425-1.646 2.1404-1.65 7.2313-0.00588 7.382-3.5053 34.618-5.7771 44.963-0.46888 2.1352-1.8627 3.8822-3.0973 3.8822-3.7576 0-7.8802 8.3114-6.7656 13.64 0.67815 3.2417 0.1816 5.5051-1.5361 7.0018-3.8746 3.3761-7.7863-0.85626-7.2159-7.8073 0.25032-3.0505-0.56998-6.8432-1.8229-8.4283-1.9494-2.4661-1.8538-5.2942 0.66266-19.604 6.5082-37.009 11.098-76.143 14.912-127.15 0.56772-7.5919 1.4116-16.909 1.8752-20.705 2.258-18.488 0.76691-36.166-9.3077-110.35-4.3075-31.718-5.75-59.218-5.75-109.62 0-35.579 0.23864-38.847 2.876-39.38 2.1075-0.42627 2.876 0.5484 2.876 3.6477 0 2.3262 1.08 6.9431 2.3999 10.26 1.32 3.3168 2.0519 6.396 1.6266 6.8425-1.6636 1.7466 4.7017 28.108 7.2615 30.073 3.7033 2.843 4.2132 1.655 1.34-3.1216-3.2508-5.4043-4.9754-11.796-3.1827-11.796 0.79738 0 2.6211 2.5789 4.0527 5.7308 3.7961 8.3579 26.626 37.718 42.552 54.723 12.297 13.131 31.779 29.908 44.661 38.462 2.5144 1.6696 4.1145 3.8124 3.5556 4.7618-1.4611 2.4821-13.549-5.293-33.168-21.335-16.487-13.48-26.28-24.068-42.25-45.678-8.2757-11.199-11.637-14.271-6.6064-6.039 5.5651 9.1073 25.947 33.408 37.552 44.771 14.999 14.688 55.02 45.895 66.263 51.67 8.0494 4.1348 10.073 7.5162 4.4973 7.5162-2.9211 0-39.363-25.772-58.12-41.104-7.6143-6.2237-19.43-17.18-26.257-24.348-6.8269-7.1676-11.123-11.096-9.5464-8.7303 6.031 9.0519 33.191 38.456 41.231 44.638 9.5817 7.3673 36.555 24.919 40.864 26.59 2.147 0.83281 2.8009 2.865 2.6056 8.0978-0.23302 6.2437-0.62487 6.8656-3.688 5.8529-1.885-0.62317-7.4947-4.3891-12.466-8.3686-4.9713-3.9796-14.736-11.29-21.7-16.245-17.34-12.339-44.166-42.899-61.887-70.499-3.808-5.9312-7.1669-10.784-7.4642-10.784-1.5011 0 4.615 22.374 7.5466 27.607 24.052 42.935 59.452 107.89 69.581 127.68 7.0436 13.76 14.394 27.736 16.334 31.058 4.4846 7.6785 12.38 25.406 12.38 27.798 0 4.8849-4.6211-0.96937-11.133-14.105-3.973-7.97-11.693-23.06-17.16-33.5s-12.113-23.18-14.769-28.3c-2.656-5.13-11.71-21.43-20.12-36.24-8.411-14.8-19.515-35.25-24.676-45.45-5.1623-10.19-10.188-19.06-11.169-19.69-2.8642-1.8585-1.1325 1.6833 20.857 42.657 30.889 57.558 79.831 161.76 82.461 175.57 1.6928 8.8865-1.7254 6.3202-5.8979-4.4282-7.188-18.52-58.197-122.36-54.034-110.01 0.31971 0.94899 10.041 21.374 21.604 45.388 17.482 36.309 35.675 78.223 35.675 82.19 0 0.53166-0.7491 0.96666-1.6647 0.96666-0.91558 0-3.5668-4.4646-5.8916-9.9212-7.2267-16.962-47.214-100.52-47.807-99.894-0.30912 0.32456 3.7569 10.219 9.0355 21.988 15.299 34.108 21.163 47.792 28.764 67.122 6.6169 16.827 7.68 18.478 14.926 23.186 7.3273 4.7607 8.2191 4.9419 14.67 2.981 24.786-7.5347 111.09-25.719 145.33-30.619 19.346-2.7693 21.775-3.4865 21.775-6.4298 0-2.9666-0.81592-3.1902-7.8062-2.1392-8.2317 1.2376-100.5 21.544-118.74 26.132-10.461 2.6316-43.712 9.3207-46.332 9.3207-3.4679 0-0.73524-3.3806 4.0147-4.9666 14.723-4.916 127.29-29.349 153.66-33.351 7.457-1.132 13.558-2.6791 13.558-3.438 0-0.75888-0.37772-1.3798-0.8394-1.3798-3.541 0-39.662 6.7696-73.114 13.703-49.722 10.305-45.293 9.3659-64.685 13.718-18.033 4.0475-20.773 4.3261-20.773 2.1128 0-2.0099 1.6142-2.4544 41.907-11.539 48.598-10.958 62.281-13.706 90.907-18.263l25.171-4.0064-1.0006-6.0583c-0.55034-3.332-3.5665-18.212-6.7026-33.067-6.3976-30.303-6.3681-30.66 3.7307-45.104 5.6301-8.0525 5.7447-8.4675 1.9883-7.2001-2.1924 0.73965-14.936 1.3301-28.318 1.3121-22.129-0.0297-24.807 0.30043-29.581 3.6469-2.887 2.0238-6.4454 6.1783-7.9076 9.2323-5.4604 11.405-11.108 14.165-14.673 7.1714-2.8397-5.5708-3.6316-2.7218-1.5258 5.489 1.5882 6.1925 1.499 7.7242-0.54104 9.2904-2.1022 1.6139-2.1231 2.3343-0.15032 5.167 2.781 3.993 2.925 6.0829 0.41938 6.0829-1.0302 0-2.8241 1.3588-3.9864 3.0195-1.9643 2.8065-2.4697 2.662-7.1656-2.0482-5.6845-5.7019-6.9596-4.188-1.5576 1.8492 3.8992 4.3576 3.0934 9.8463-1.3144 8.9537-3.0268-0.61296-10.292-19.362-8.3094-21.443 0.64829-0.68065 2.6623 0.1721 4.4756 1.895 3.9923 3.7933 4.2515 2.2805 0.60916-3.5558-3.2597-5.2233-1.7146-7.486 3.0007-4.3942 3.1063 2.0368 3.3225 1.9442 2.1682-0.92802-2.604-6.4797-1.8629-10.1 2.0382-9.9551 2.5347 0.0939 3.6977-0.85578 3.6977-3.0195 0-1.7361 0.6881-3.1565 1.5291-3.1565 0.84101 0 1.7678-1.747 2.0596-3.8822 0.40612-2.9721 1.4671-3.7727 4.526-3.4148 2.6722 0.31261 5.4147-1.164 8.2805-4.4582 2.3568-2.7091 5.6564-5.7314 7.3326-6.7163 2.9343-1.7241 2.881-2.4961-1.4338-20.757-2.4648-10.431-6.285-22.76-8.4894-27.397-2.2043-4.6372-3.5618-6.8783-3.0168-4.9803 0.54507 1.898 2.1198 8.4978 3.4993 14.666 1.3796 6.1684 3.9064 16.65 5.6152 23.293 2.9104 11.314 2.9311 12.214 0.32692 14.235-1.529 1.1862-3.9397 2.1568-5.3573 2.1568s-3.5011 1.5529-4.63 3.4509c-1.129 1.898-3.4918 3.4509-5.2508 3.4509s-5.0006 1.747-7.2034 3.8822c-2.2029 2.1352-7.3789 6.8167-11.502 10.403-4.1234 3.5866-9.4743 10.335-11.891 14.997-4.9195 9.4898-7.2933 11.158-11.396 8.0079-2.626-2.016-2.5703-2.6581 0.84969-9.8027 6.059-12.658 11.025-18.37 23.102-26.572 6.3304-4.2995 12.147-7.8173 12.926-7.8173 2.2275 0 3.4114-4.7557 3.4114-13.704 0-5.9496-1.1439-10.015-4.1085-14.602-2.2597-3.496-4.1085-6.9461-4.1085-7.6668 0-4.1554-20.396-19.242-26.014-19.242-1.5501 0-6.8694-3.4672-11.821-7.7049-24.86-21.27-42.251-35.06-62.424-49.48-38.458-27.5-68.481-54.66-80.176-72.54-5.3183-8.1322-6.503-11.767-3.8351-11.767 0.79529 0 12.073 11.462 25.062 25.472 25.799 27.826 37.311 38.563 54.841 51.148l11.504 8.2585-8.9826-9.6556c-4.9404-5.3106-9.8532-9.6557-10.917-9.6557-1.064 0-2.3602-1.1647-2.8805-2.5882-2.274-6.2218 5.1578-2.1882 19.671 10.676 4.6168 4.0924 9.0537 7.4408 9.8597 7.4408 2.2504 0-12.315-13.597-21.541-20.109-4.52-3.18-12.285-8.91-17.256-12.73-4.971-3.81-12.736-9.58-17.256-12.82-12.456-8.94-30.465-25.47-37.947-34.83-15.055-18.83-15.303-24.24-0.4009-8.72 4.8217 5.0216 6.4781 6.3804 3.681 3.0195-7.1273-8.5635-12.602-18.647-11.313-20.836 0.5983-1.0164 1.5747-1.6129 2.1698-1.3255 0.59508 0.28735 15.755 16.625 33.689 36.306s34.303 36.763 36.377 37.96c6.239 3.6005 39.402 31.046 76.458 63.277 4.9713 4.324 7.5597 6.0411 5.7519 3.8158-1.8077-2.2253-18.817-17.666-37.798-34.313-39.538-34.675-41.644-36.644-39.188-36.644 2.133 0 59.71 45.03 73.11 57.178 7.4154 6.7226 9.471 7.8568 10.271 5.6673 1.771-4.8454 1.0791-9.8222-2.4204-17.412-3.4529-7.4886-4.8993-8.7446-31.828-27.637-7.1843-5.0402-20.617-16.158-29.851-24.707-17.922-16.592-22.551-23.836-24.543-38.402-1.0305-7.5352-0.85416-8.1722 2.1304-7.694 1.7897 0.28675 9.4551 6.4584 17.034 13.715 16.631 15.923 33.974 30.664 36.075 30.664 2.4258 0 1.9062-3.5053-4.2688-28.801-6.0202-24.662-15.28-46.825-23.651-56.608-2.436-2.847-6.3201-7.8938-8.6312-11.215-2.3111-3.3215-11.745-14.951-20.963-25.844-9.2186-10.893-15.881-20.113-14.804-20.49 1.0763-0.37667 7.5951 5.8181 14.486 13.766 14.384 16.59 20.734 23.13 28.046 28.887l5.1867 4.0834-7.5209-14.725c-4.1365-8.0987-7.3526-15.371-7.147-16.161 0.20567-0.79006-1.6353-5.5128-4.091-10.495-2.9501-5.9852-3.7586-9.0551-2.383-9.0485 1.1451 6e-3 6.5191 8.1472 11.942 18.093 5.4232 9.9455 10.415 18.094 11.093 18.107 1.9057 0.0376 1.799-0.20852-7.8062-18.016-9.8259-18.216-9.8169-18.194-7.3606-18.194 0.92295 0 8.0166 10.094 15.764 22.431 7.747 12.337 14.374 22.431 14.726 22.431 0.87258 0-22.212-47.033-24.094-49.089-0.82514-0.90154-1.5002-2.7436-1.5002-4.0935 0-7.5691 12.112 13.134 31.718 54.217 17.031 35.687 40.497 98.173 37.313 99.357-0.80647 0.30004 1.9225 6.3689 6.0645 13.486 4.142 7.1174 11.196 19.929 15.676 28.47 4.4799 8.5409 9.423 16.694 10.985 18.117 1.5616 1.4235 6.0168 11.517 9.9005 22.431 3.8837 10.913 7.7171 20.585 8.5187 21.493 1.9144 2.1675-7.1889-26.058-10.71-33.207-1.5774-3.2027-2.0003-5.5398-1.0023-5.5398 0.94946 0 2.4292 1.9411 3.2883 4.3136 0.85912 2.3725 1.9173 4.3136 2.3515 4.3136 0.82185 0 0.54096-0.86942-10.313-31.92-12.542-35.881-14.92-41.271-15.162-34.365-0.11037 3.1602-0.17825 3.1538-1.5279-0.14378-0.77683-1.898-1.4644-5.7864-1.5279-8.6409s-1.9643-8.8364-4.224-13.293c-2.2597-4.4567-4.1085-10.468-4.1085-13.358 0-2.8904-0.75128-5.2553-1.6695-5.2553-0.91824 0-1.6074-2.1352-1.5314-4.7449s-1.4515-9.4036-3.3944-15.098c-4.5106-13.219-27.32-62.732-41.572-90.24-10.772-20.791-13.48-27.91-8.6426-22.714 3.7046 3.9785 25.07 43.591 35.796 66.368 5.3628 11.388 9.3677 19.395 8.8998 17.794-0.46786-1.6014-1.6604-6.069-2.6501-9.9279-2.2741-8.8668-10.023-27.686-22.856-55.51-5.5208-11.969-10.038-22.812-10.038-24.094 0-4.9928 4.9698 3.2744 18.232 30.328 9.3614 19.097 13.236 25.659 12.568 21.287-0.87526-5.7311-3.3447-12.15-16.627-43.217-7.3232-17.129-1.5254-12.7 7.1582 5.4679 4.5543 9.5285 8.5482 17.325 8.8752 17.325 1.152 0-2.0825-14.744-4.6247-21.081-1.4154-3.5282-2.5734-7.6504-2.5734-9.1604 0-4.0267 3.2754-1.2409 5.7211 4.866l2.1097 5.268 1.1562-5.5267c0.63588-3.0397 2.8864-10.162 5.0012-15.828 2.1148-5.6656 3.1878-10.301 2.3846-10.301-0.80325 0-5.2129 1.5529-9.7992 3.4509s-10.209 3.4509-12.494 3.4509c-2.2856 0-5.4584 0.73196-7.0505 1.6266-1.5922 0.89462-12.082 3.6819-23.311 6.1939-24.863 5.5622-41.295 10.431-49.895 14.785-3.5593 1.8018-7.6267 3.3056-9.0387 3.3416s-4.5551 2.9477-6.9847 6.4704-10.134 14.169-17.121 23.659c-13.436 18.249-28.083 47.861-32.542 65.788-2.8181 11.331-3.4053 12.161-6.6163 9.3636-1.6571-1.4439-2.1289-3.8652-1.4768-7.579 1.7008-9.6857 9.8716-34.487 15.055-45.696 8.3898-18.145 38.642-57.248 44.29-57.248 1.4132 0 3.7371-1.0624 5.1641-2.3609 5.7716-5.2518 55.894-21.18 85.587-27.199 4.0674-0.82444 14.421-4.3138 23.008-7.7541 8.5868-3.4403 19.68-7.8127 24.651-9.7164 4.9713-1.9037 11.846-4.9815 15.276-6.8396 9.2482-5.0089 12.03-3.0631 6.9217 4.8408-8.6129 13.325-9.1999 23.841-3.3535 60.076 5.9392 36.809 12.922 58.833 23.094 72.834 5.0188 6.9085 5.1787 9.7033 0.51367 8.9814-4.1601-0.64374-12.968-17.773-21.132-41.099-4.7828-13.664-12.818-49.961-13.327-60.196-0.18804-3.7872-0.3339-3.917-0.91275-0.81185-0.98734 5.2967 8.5342 55.893 13.591 72.223 2.3511 7.5919 6.4856 19.407 9.1879 26.256 5.0058 12.687 5.0061 16.017 1e-3 16.017-2.0154 0-4.1242-3.7918-7.437-13.372-10.904-31.534-14.276-41.8-18.275-55.645-2.3302-8.0664-3.8115-11.56-3.2918-7.7644 1.5491 11.316 10.625 47.787 13.74 55.214 2.8722 6.8479 6.3846 16.597 7.7708 21.568 1.9078 6.8419-10.231 17.578-26.066 23.053-3.3091 1.1443-3.8312 7.9886-1.0469 13.726 2.9088 5.9935 21.583 25.278 23.361 24.124 0.89199-0.57881 1.0932-0.16434 0.45044 0.92765-1.3071 2.2205 18.979 25.405 43.276 49.46 21.41 21.196 29.473 29.661 49.307 51.763 9.3674 10.439 16.019 17.427 14.78 15.529-5.423-8.3119-25.031-30.87-42.744-49.175-20.444-21.127-28.085-30.376-47.755-57.802-15.895-22.163-24.88-37.695-24.121-41.695 0.43934-2.3155 2.5397-0.1531 7.8181 8.0492 8.8783 13.796 37.737 53.488 38.889 53.488 1.0295 0-0.16496-2.1028-6.8607-12.078-2.8665-4.2704-7.6306-12.383-10.587-18.027-2.9563-5.6445-8.9754-16.832-13.376-24.86-7.5632-13.8-8.7758-17.568-4.8289-15.007 2.1524 1.3966 35.559 48.341 50.206 70.552 6.0236 9.1341 11.635 17.05 12.469 17.592 1.3513 0.87685-29.193-53.914-36.101-64.757-5.0011-7.8508-13.346-27.831-12.338-29.543 1.2027-2.0431 5.628 1.4119 5.628 4.3939 0 2.4617 17.493 30.032 42.78 67.422 10.268 15.184 24.845 37.118 32.392 48.743 7.5468 11.625 14.143 21.137 14.658 21.137 0.51498 0-0.40053-2.1352-2.0345-4.7449-1.6339-2.6097-9.2248-15.227-16.868-28.038-14.414-24.159-23.704-39.332-43.841-71.605-21.159-33.91-32.041-56.102-27.496-56.067 0.67791 5e-3 5.5118 7.5755 10.742 16.823s16.865 27.684 25.855 40.97c8.9898 13.286 20.241 30.574 25.002 38.418 4.7614 7.844 16.674 27.255 26.472 43.136 16.237 26.316 29.861 52.166 33.055 62.719 1.0627 3.5108 1.3608 3.656 2.0326 0.98963 0.433-1.7185-0.48193-5.9889-2.0332-9.4899-7.965-17.976-12.944-27.702-17.386-33.96-5.3254-7.5033-34.306-55.903-34.306-57.294 0-0.46811-1.3662-2.9121-3.036-5.431-1.6698-2.519-5.2588-8.8504-7.9755-14.07-2.7167-5.2194-12.187-21.525-21.046-36.234-15.636-25.963-28.748-51.049-28.748-55 0-4.8636 3.3881-1.0193 7.795 8.8445 2.6499 5.9312 16.216 29.271 30.147 51.867s32.578 53.265 41.439 68.155c15.533 26.102 24.145 38.789 15.449 22.758-2.3165-4.2704-9.4404-17.405-15.831-29.187-6.3904-11.782-11.619-21.916-11.619-22.519 0-1.2884-8.5284-14.572-25.515-39.742-17.935-26.575-41.787-69.632-51.136-92.311-22.748-55.183-22.357-53.937-23.19-73.909-0.64243-15.4-0.26853-19.886 2.1214-25.45 4.7013-10.946 6.9572-8.6944 6.0563 6.0449-0.96776 15.833-6e-3 18.778 14.65 44.875 14.253 25.379 35.525 49.268 58.114 65.264 8.1349 5.7605 16.881 12.29 19.436 14.51 6.4263 5.5838 7.6801 5.1049 7.6801-2.934 0-3.8338 1.5569-10.174 3.4597-14.09l3.4597-7.12-3.8607-3.0575c-2.1234-1.6816-7.193-4.0026-11.266-5.1579-13.171-3.7359-27.631-13.438-26.708-17.921 0.23002-1.1169-1.249-2.99-3.2868-4.1625s-5.6886-5.5395-8.1131-9.7045c-2.4244-4.165-8.2129-10.443-12.863-13.95-10.652-8.0345-27.101-28.212-32.207-39.508-2.3405-5.1774-3.9064-11.814-3.916-16.597-9e-3 -4.3835-1.8976-13.701-4.1972-20.705-7.6617-23.337-8.0347-26.493-4.1314-34.959 2.889-6.2656 3.1585-8.3441 1.6199-12.489-1.0152-2.7348-1.9584-14.678-2.096-26.54-0.26398-22.764 1.4491-31.685 7.1188-37.072 2.9807-2.8321 3.3784-2.7996 7.998 0.65407 6.0709 4.5386 6.9726 4.4914 10.46-0.54773 2.72-3.9302 2.6911-4.1098-0.8217-5.0985-2.0025-0.56366-5.2144-1.0354-7.1374-1.0484s-4.4165-1.1875-5.5411-2.6102c-3.2144-4.0664 0.80886-11.94 10.497-20.542 10.669-9.4736 15.456-12.099 21.256-11.659 3.023 0.22965 4.2481-0.31017 3.5181-1.5502-1.727-2.9338 7.4157-11.83 14.1-13.72 8.5348-2.4129 25.664-2.598 35.263-0.38106 4.5194 1.0438 18.201 2.3397 30.403 2.8798 17.93 0.79371 23.836 1.7258 30.786 4.8592 9.0008 4.0578 11.937 7.8879 4.1366 5.3952-2.4856-0.79431-8.5868-1.4518-13.558-1.4611-12.313-0.023-61.476 7.8307-62.253 9.9448-0.34394 0.93616-3.0912 4.5677-6.105 8.0701-4.9344 5.7345-7.9188 7.5565-22.029 13.449-3.9562 1.6522-3.8647 1.7626 2.4651 2.9766 3.6155 0.69342 8.2917 2.3934 10.392 3.7778 3.6873 2.4309 3.7505 2.3846 1.8462-1.3512-2.7163-5.3288 1.97-9.0288 9.9482-7.8545 5.1036 0.75121 5.3265 0.63408 1.9774-1.0393-2.4788-1.2385-3.6071-3.1158-3.2868-5.4685 0.41473-3.0462 1.5849-3.5562 7.8169-3.4069 5.2991 0.127 8.0303-0.71647 9.8604-3.0452 1.8334-2.3329 5.4764-3.4536 13.213-4.0651 9.6945-0.76612 11.492-0.35442 19.441 4.453 4.8176 2.9134 14.514 11.069 21.547 18.124 7.0333 7.0549 13.63 12.827 14.659 12.827 2.0372 0 2.6546 5.1063 0.63909 5.2864-0.67791 0.0606-3.8185 0.37359-6.9791 0.69559s-7.1372-0.19595-8.8369-1.151c-2.2453-1.2616-3.4584-1.1112-4.4362 0.54985-1.0994 1.8677-2.7375 1.8955-8.9464 0.15201-4.1803-1.1739-8.2568-1.7085-9.0589-1.188-2.3698 1.5377-27.851-2.3659-39.281-6.0176-10.499-3.3543-10.585-3.3542-12.83 0.0106-2.8281 4.2392-7.8129 4.2769-19.792 0.14972-10.45-3.6002-28.11-6.1901-25.706-3.7698 0.83465 0.84028 6.3245 4.1195 12.2 7.2872 9.245 4.9846 12.175 5.727 21.775 5.5188 11.972-0.25963 14.298 1.8644 7.3953 6.7506-3.4738 2.4589-3.2498 2.5329 3.6977 1.2229 8.4955-1.6019 9.554-1.1507 6.4657 2.7562-1.8666 2.3614-4.7143 2.6639-17.901 1.9013-11.405-0.65949-13.44-0.51406-7.464 0.5333 4.5194 0.79206 11.73 1.5081 16.023 1.5912 4.2934 0.0831 7.8062 0.92761 7.8062 1.8766s-0.73953 1.7254-1.6434 1.7254-1.6434 1.1499-1.6434 2.5553-1.664 2.9281-3.6977 3.3837c-2.0337 0.45563-5.1767 1.1568-6.9845 1.5582-1.9424 0.43127-1.1022 0.81161 2.0543 0.92991 8.5285 0.3196 6.2107 2.9298-5.2348 5.8953-12.433 3.2214-27.222 9.6165-27.222 11.772 0 2.1488 0.76818 1.9388 6.9781-1.908 5.28-3.2708 30.212-8.1455 32.009-6.2585 1.2224 1.2834-8.882 5.6658-17.623 7.6433-6.5278 1.4768-5.9494 1.5793 4.9302 0.87343 11.394-0.73925 12.085-0.59517 9.1355 1.907-1.7545 1.4887-4.9966 2.7067-7.2047 2.7067-4.9574 0-16.721 3.5943-16.721 5.109 0 0.61155 4.2523 0.58922 9.4496-0.0496 11.793-1.4495 13.882 0.28432 6.2831 5.2152-6.97 4.5227-7.4257 5.7294-1.5819 4.1896 3.9222-1.0335 4.1883-0.77727 3.1022 2.9866-2.1045 7.2929-9.1145 13.645-14.687 13.308-5.6718-0.34258-10.783-4.1279-10.783-7.9856 0-4.1202-15.171-20.08-20.23-21.282-4.0226-0.95586-5.0983-0.28925-8.353 5.1763-5.7041 9.5788-7.5806 16.945-6.4746 25.417 1.1177 8.5617 3.8323 12.082 3.8323 4.9704 0-2.889 0.75257-4.29 2.0543-3.8244 1.2534 0.4483 2.0569 3.9127 2.061 8.8858 6e-3 6.7284 0.97281 9.3591 5.5415 15.073 4.2388 5.3008 5.0822 7.395 3.6021 8.9437-1.4786 1.5471-2.6753 1.0088-5.0941-2.2914-2.741-3.7398-3.1664-3.8824-3.1981-1.0718-0.0201 1.783 2.3669 6.0604 5.3045 9.5054s6.4569 8.0654 7.8207 10.268c1.974 3.1875 3.3794 3.767 6.8919 2.8414 3.4559-0.91066 4.5214-2.3429 4.9157-6.6077 1.0652-11.521 3.8322-4.7432 4.8207 11.809 1.3602 22.775 5.3056 34.072 13.51 38.682 2.1104 1.1858 6.6504 7.2054 10.089 13.377 3.4385 6.1714 7.2492 11.623 8.4682 12.114 1.219 0.49111 1.8825 1.4601 1.4745 2.1533-0.77166 1.3109 10.561 7.6439 11.644 6.5069 0.33853-0.35544-1.1427-5.2415-3.2916-10.858-5.6018-14.641-6.4272-17.976-4.4486-17.976 2.1147 0 6.9756 9.9391 10.685 21.849 1.5262 4.8994 3.8632 9.3464 5.1935 9.8824 2.0238 0.81537 2.098 0.34697 0.45434-2.8689-5.1084-9.9948-13.993-37.489-12.114-37.489 2.0608 0 9.75 16.515 14.862 31.92 1.5744 4.7449 5.1682 10.863 7.9861 13.596 25.537 24.765 23.669 23.855 42.11 20.514 19.483-3.5295 23.654-3.8678 24.749-2.0074 0.56432 0.95863 3.3466 0.57269 6.8034-0.94373 6.5387-2.8684 7.7728-6.5845 8.8354-26.605 0.43288-8.1557 2.0496-14.139 6.2942-23.293 4.2886-9.2495 5.9753-15.543 6.7698-25.259 0.58193-7.1174 1.6057-13.717 2.275-14.666 0.66934-0.94899 2.5206-5.4296 4.114-9.9569 2.3181-6.5867 2.5389-9.3102 1.1047-13.63-2.1375-6.4378-2.3242-11.785-0.41138-11.785 0.7595 0 2.3567 4.2704 3.5493 9.4899 2.4556 10.747 4.846 11.756 16.076 6.7857 3.3605-1.4873 10.917-3.1245 16.792-3.6382 19.233-1.6817 38.41 6 69.905 28.002 12.796 8.9393 20.655 11.567 22.947 7.6728 1.2381-2.1032 10.657-2.2357 13.728-0.19301 1.7075 1.136 1.8029 2.3055 0.41085 5.0364-0.9972 1.9563-1.8131 9.8417-1.8131 17.523 0 15.232-6.3908 51.92-11.507 66.056-3.7029 10.232-11.144 22.005-13.908 22.005-1.0776 0-2.8082 3.6881-3.8457 8.1958s-2.3375 10.137-2.8889 12.509c-0.55136 2.3725 4.1155-4.6155 10.371-15.529 6.2553-10.913 15.168-26.012 19.806-33.554l8.4322-13.711-0.93191-21.205c-0.80436-18.302-0.4687-22.806 2.4525-32.903 3.4008-11.755 8.8115-20.145 12.222-18.952 6.0703 2.1244 5.4311 48.307-1.1042 79.777-2.1679 10.439-3.7389 19.214-3.4912 19.501 1.819 2.105 10.995-21.869 20.171-52.698 9.9363-33.385 13.435-42.062 13.574-33.664 0.0421 2.5412 0.27087 2.6096 1.4446 0.43136 6.6965-12.427 0.97998-13.977-7.2408-1.963-4.7665 6.9658-6.4335 8.2505-9.8228 7.5703-6.1526-1.2348-4.5763-8.3217 4.0296-18.117 7.1303-8.1154 7.3028-8.1958 17.587-8.1958 10.231 0 10.387 0.0712 10.404 4.7449 0.01 2.6097 0.47131 7.6232 1.0252 11.141l1.0072 6.3962 4.1103-6.3962c10.227-15.914 10.302-15.992 13.671-14.098 2.3603 1.3263 3.1823 3.6522 3.2006 9.0569 0.0296 8.7422 6.0357 29.711 12.103 42.253 4.2765 8.841 4.3184 9.2164 1.4781 13.222-1.6078 2.2676-5.0089 4.5701-7.558 5.1165-3.822 0.81933-5.3984 2.8877-8.9908 11.796-2.3959 5.9416-7.8372 18.17-12.092 27.175-4.2545 9.0048-7.3636 16.763-6.9091 17.24 0.45447 0.47715 1.6306-0.64148 2.6137-2.4858 0.98309-1.8444 7.2136-9.7567 13.846-17.583 8.8418-10.434 12.064-15.519 12.081-19.063 0.0398-8.579 1.7638-12.03 7.4253-14.865l5.5483-2.7778 8.009 9.4344c4.4049 5.1889 8.5064 8.9121 9.1144 8.2738 2.6504-2.7826 0.64029-8.4937-5.4184-15.395-8.0626-9.1834-23.874-43.103-26.074-55.934-2.1121-12.322-0.86599-25.111 3.236-33.213 4.2912-8.4751 11.251-34.927 13.732-52.196 1.5034-10.461 11.129-42.755 13.886-46.587 1.1878-1.651 6.6732-18.582 6.6732-20.598 0-0.53342-1.664-0.98691-3.6977-1.0078-4.9631-0.0509-17.576-6.1812-22.33-10.853-2.1126-2.0763-4.8372-6.2709-6.0545-9.3214-1.3625-3.4142-3.7744-5.9576-6.2744-6.6164-5.7887-1.5254-19.389-20.556-21.894-30.635-1.1329-4.5588-4.3099-12.418-7.06-17.464-2.7501-5.0465-5.0001-10.456-5.0001-12.022 0-3.457 7.6972-15.997 10.516-17.133 1.1141-0.44885 3.0476-5.2886 4.2966-10.755 4.2378-18.547 13.64-25.547 31.907-23.756 9.5165 0.93303 11.355 0.62324 14.544-2.4507 2.0077-1.9353 6.0807-4.0586 9.051-4.7185 7.0287-1.5615 21.294 3.7238 24.676 9.1424 2.2323 3.577 3.3403 3.8889 10.264 2.889 7.6296-1.1017 7.8644-0.99217 13.767 6.4214 4.2011 5.2767 8.1644 8.2117 13.195 9.7711 8.0751 2.5033 9.1354 4.3627 13.139 23.042 1.3695 6.389 4.7154 15.756 7.4352 20.816 7.7956 14.503 10.33 30.685 7.5212 48.022l-1.2939 7.9864 11.289 5.8171c8.1272 4.1879 14.511 9.3554 22.793 18.45 11.47 12.595 20.81 19.288 26.92 19.288 4.9274 0 6.0796 8.7492 2.392 18.164-1.6598 4.2375-3.5724 7.7075-4.2503 7.711-0.67791 4e-3 -1.2326 1.0508-1.2326 2.3272s-1.4373 3.6864-3.1939 5.3554c-1.7864 1.6974-4.3004 8.0882-5.7048 14.502-1.381 6.3072-5.0965 19.411-8.2565 29.119-3.16 9.7083-6.9411 22.52-8.4024 28.47s-6.5726 21.3-11.358 34.112c-4.7858 12.811-10.286 28.34-12.222 34.509-1.9364 6.1684-10.014 24.415-17.95 40.548l-14.429 29.332-11.419 0.97128c-13.236 1.1258-16.407 2.4409-28.675 11.894-4.9713 3.8307-13.702 9.3733-19.401 12.317-9.2917 4.7993-10.868 5.1321-15.26 3.222-3.6548-1.5894-13.331-1.8341-38.118-0.96405-18.271 0.64133-41.355 1.3468-51.298 1.5676-19.725 0.43814-21.301 0.9909-39.029 13.696-5.2833 3.7864-11.605 7.0847-14.048 7.3296-2.4431 0.24489-6.5084 1.3102-9.0339 2.3674-6.8691 2.8754-13.167 4.4255-16.101 3.9632-1.8932-0.29837-7.1796 9.2493-19.152 34.59-9.0953 19.251-18.185 40.049-20.199 46.217-2.0139 6.1684-5.0432 14.096-6.7318 17.617-5.6576 11.797-5.3731 12.005 15.418 11.277 10.169-0.35585 28.205-1.7164 40.08-3.0235 24.502-2.6968 31.772-1.5015 39.98 6.573 6.5336 6.4277 7.4176 10.901 3.2528 16.46-2.523 3.3676-4.9285 4.5847-9.061 4.5847-3.0944 0-9.8814 1.513-15.082 3.3621-13.454 4.7834-28.887 8.7159-34.207 8.7159-2.5053 0-5.9528 1.3588-7.6611 3.0195-1.7082 1.6607-4.7284 4.6484-6.7115 6.6393-9.017 9.0526-16.266 8.6895-7.8105-0.39112 4.4643-4.7942 4.5271-5.0619 1.1738-5.0094-5.995 0.0937-5.3213-3.2041 1.4809-7.2493 4.4464-2.6442 9.3174-3.8818 15.519-3.9428 9.169-0.0903 27.438-3.5499 31.021-5.8743 1.0784-0.69975 6.8694-2.0021 12.869-2.8942 11.712-1.7414 15.273-3.6994 15.273-8.3975 0-4.7734-5.9883-9.1371-14.372-10.473-7.3139-1.1654-32.252 1.3905-49.721 5.0959-4.0674 0.86276-17.19 1.5826-29.16 1.5997-26.385 0.0376-44.763 2.7134-54.653 7.9574-15.913 8.437-23.756 13.221-24.974 15.232-1.7599 2.9078-1.6235 21.524 0.21139 28.844 0.83267 3.3214 2.3402 10.403 3.35 15.737l1.836 9.6977 22.525-0.63967c12.388-0.35181 27.332-1.3096 33.207-2.1285l10.682-1.4889-16.434-0.36398c-29.543-0.6543-34.056-3.1027-6.1628-3.3431 15.749-0.13572 25.062 0.42517 25.062 1.5095 0 0.98416 4.8884 1.7254 11.378 1.7254 6.2582 0 15.002 0.87807 19.43 1.9513 6.6821 1.6194 9.0095 1.4872 13.683-0.7771 10.053-4.8702 35.092-10.064 60.344-12.516 6.0635-0.58891 15.092-2.6146 20.063-4.5016 4.9713-1.887 14.857-4.509 21.969-5.8268 11.793-2.1852 25.593-8.4852 28.167-12.859 0.552-0.93774 2.4827-1.705 4.2904-1.705 1.8078 0 2.8298 0.77645 2.2711 1.7254-0.55863 0.94898-0.27614 1.7254 0.62773 1.7254 0.90388 0 2.0663-0.71845 2.5832-1.5966 0.51689-0.87809-3.322-2.9126-8.5309-4.5212-7.8577-2.4266-10.59-2.5769-16.044-0.8828-10.739 3.3358-18.84 4.9545-35.333 7.0604-8.5868 1.0964-16.218 2.5947-16.959 3.3295-1.9815 1.9662-15.368 0.12545-26.129-3.5928-5.6033-1.9362-14.064-3.2474-20.953-3.2474-6.3556 0-11.556-0.73061-11.556-1.6236 0-2.9273 2.2542-3.0906 20.543-1.4879 9.9426 0.87129 21.405 1.8707 25.473 2.2209 4.0674 0.35021 11.833-0.5446 17.256-1.9885 10.608-2.8242 34.469-5.8098 51.82-6.4839 6.2916-0.24444 12.414-1.5367 14.791-3.1221 2.2308-1.4878 6.6025-3.2642 9.715-3.9475 5.3935-1.1842 5.5091-1.3619 2.4651-3.7871-4.0559-3.2313-27.685-1.9977-38.347 2.002-3.9684 1.4887-9.1451 2.5749-11.504 2.4138-6.0591-0.41395-14.729 1.8563-22.145 5.7989-4.5929 2.4416-7.5524 2.9838-10.682 1.957-2.381-0.78115-9.1361-1.4251-15.011-1.431-15.57-0.0157-13.929-3.1843 2.038-3.9337 9.331-0.43797 16.744-1.947 23.715-4.8275 5.5774-2.3047 13.442-4.1904 17.478-4.1904 8.4332 0 24.478-4.9469 23.182-7.1476-0.47902-0.81373-3.7311-1.4795-7.2268-1.4795-7.9004 0-37.489 6.03-43.353 8.8352-4.7008 2.2487-7.69 0.90414-4.7807-2.1504 0.98739-1.0367 6.8093-3.3446 12.938-5.1288 13.761-4.0062 18.099-7.6766 7.234-6.1203-4.0674 0.58262-10.169 1.5613-13.558 2.1748-3.9111 0.70796-6.1628 0.44785-6.1628-0.71189 0-2.7692 16.737-6.1181 24-4.8024 3.5215 0.63786 12.319 1.7526 19.55 2.4772 7.231 0.72459 14.996 2.3877 17.256 3.6958 2.2597 1.308 9.1712 2.5678 15.359 2.7995 11.391 0.4264 15.736 2.5813 19.299 9.571 2.4214 4.7503 0.0963 7.8203-7.6468 10.096-8.2184 2.4159-8.9125 3.5778-3.6021 6.0303 6.9605 3.2145 4.8908 12.919-2.7554 12.919-1.9773 0-8.8491 2.7176-15.271 6.039-6.4216 3.3215-13.802 6.039-16.401 6.039-6.5994 0-22.958 4.6381-31.385 8.8985-4.855 2.4545-11.034 3.7202-19.721 4.04-6.958 0.2561-15.609 1.2886-19.225 2.2945-3.6155 1.0059-11.75 3.0405-18.077 4.5213-6.3271 1.4808-12.983 3.4864-14.791 4.4566-6.037 3.2404-19.72 4.5059-32.933 3.0459-7.1951-0.79497-19.368-0.87993-27.051-0.18883-7.6829 0.69112-14.949 1.2951-16.146 1.3422-1.1973 0.0471-2.9028 1.4476-3.7901 3.1123-3.4564 6.4846-10.006 32.949-16.217 65.523-6.6607 34.934-14.749 70.678-18.043 79.734-1.2188 3.3506-1.4837 11.041-0.77271 22.431 0.59501 9.5327 1.189 30.726 1.3199 47.096l0.23807 29.764-5.1417-3e-4c-4.2077-4e-4 -5.4764-0.9408-6.9845-5.1769zm-97.665-77.18c-0.41667-1.6788-0.78499-0.72301-0.81848 2.124-0.0335 2.847 0.30741 4.2205 0.75759 3.0523 0.45016-1.1682 0.47756-3.4975 0.0609-5.1763zm-174.2-13.78c-0.41667-1.6788-0.78499-0.723-0.81848 2.124-0.0335 2.847 0.30741 4.2205 0.75759 3.0523 0.45016-1.1682 0.47756-3.4975 0.0609-5.1763zm-52.569-14.67c-0.39309-2.1463-0.72964-0.79656-0.74788 2.9994s0.30339 5.552 0.71472 3.9023 0.42625-4.7554 0.03316-6.9017zm212.03-10.342c-0.36576-3.1012-0.67256-0.97989-0.68178 4.714-9e-3 5.6939 0.29003 8.2313 0.66502 5.6386 0.37497-2.5927 0.38252-7.2514 0.0168-10.353zm-23.076 6.9787c-0.52461-1.3764-0.91403-0.96759-0.99288 1.0424-0.0714 1.8189 0.31704 2.838 0.86315 2.2646 0.54609-0.57334 0.60446-2.0615 0.12973-3.3071zm-126.53-13.049c-0.41336-1.6607-0.75158-0.30195-0.75158 3.0195 0 3.3215 0.33822 4.6802 0.75158 3.0195 0.41335-1.6607 0.41335-4.3783 0-6.039zm-14.801-7.6566c-0.52461-1.3764-0.91403-0.96759-0.99288 1.0424-0.0714 1.8189 0.31706 2.838 0.86315 2.2646 0.54609-0.57334 0.60446-2.0615 0.12973-3.3071zm26.815-4.1133c0-0.54227-1.1568-2.2006-2.5708-3.685-1.7983-1.888-2.0513-3.2444-0.84219-4.5139 3.5347-3.7112 83.701-21.236 126.65-27.687 14.019-2.1054 25.272-4.5703 25.008-5.4776-1.1255-3.8628-21.173-0.66141-108.81 17.376-20.337 4.1859-42.523 8.6837-49.302 9.9952l-12.326 2.3845 9.4496 4.4765c5.1973 2.4621 9.4496 5.2957 9.4496 6.2969s0.73954 1.8204 1.6434 1.8204c0.90387 0 1.6434-0.44368 1.6434-0.98596zm49.302-5.8117c12.202-1.8165 29.951-4.1932 39.442-5.2815 9.4907-1.0883 25.391-3.4177 35.333-5.1764 9.9426-1.7587 25.843-4.1209 35.333-5.2492 9.4907-1.1284 18.114-2.7757 19.164-3.6606 1.1839-0.99839 2.2754-0.98476 2.8763 0.036 0.90054 1.5298 7.3509 1.2812 20.278-0.78152 5.105-0.81461 5.3411-1.192 5.3411-8.5385 0-6.5756-0.48242-7.6863-3.3384-7.6863-3.4039 0-3.857 0.73361-5.5944 9.0585-1.5089 7.2298-4.8323 5.9596-3.693-1.4115 0.9186-5.9431 0.79791-6.1237-3.4826-5.2102-3.2754 0.69894-30.717 4.465-32.534 4.465-0.13669 0-0.70338 2.3878-1.2593 5.3061-0.73447 3.8556-1.8006 5.1464-3.9001 4.7219-1.5896-0.3214-2.8907-2.1136-2.8923-3.9838-2e-3 -1.8698-1.1811-3.6399-2.6211-3.9336-2.9237-0.59629-53.052 9.7736-72.157 14.927-21.106 5.693-49.722 12.12-59.163 13.288-4.9713 0.61483-10.148 1.8572-11.504 2.7608-3.2657 2.1765 15.732 0.61394 44.372-3.6495zm168.14-24.37c0.48658-1.9536 0.46937-7.7769-0.0382-12.941-0.81803-8.3214-1.3464-9.3888-4.6477-9.3888-2.8712 0-3.5346 0.76347-2.895 3.3315 0.49338 1.9809 1.7635 2.9553 3.133 2.4035 1.2667-0.51035 2.3032-0.15148 2.3032 0.79751s-1.0432 2.1457-2.3183 2.6594c-1.5525 0.62549-2.2808 3.5362-2.2048 8.8118 0.0902 6.2628 0.69459 7.8778 2.9483 7.8778 1.5592 0 3.233-1.5984 3.7196-3.552zm25.232-0.73038c14.872-1.359 15.284-1.7714 15.33-15.354 0.0323-9.6479-4.6355-39.472-8.5388-54.557-8.8144-34.065-11.831-61.253-7.6959-69.364 1.6881-3.3117 1.4792-3.4872-2.876-2.4153-10.273 2.5283-12.993 4.6266-16.497 12.727-5.4626 12.628-7.3613 22.166-7.2539 36.439 0.0943 12.532 1.261 18.119 9.9466 47.632 4.6885 15.931 5.2267 35.844 1.1807 43.684-2.8485 5.5194-2.8477 5.6655 0.0214 4.0791 1.6366-0.90492 9.0091-2.1966 16.383-2.8705zm1.1132-5.3235c-0.54359-1.4873-0.15061-3.5837 0.87329-4.6587s1.8503-2.7698 1.8364-3.7662c-0.0138-0.99644-0.67874-0.72801-1.4776 0.59651-2.2184 3.6784-7.0405 0.90277-6.4187-3.6946 0.43015-3.1803 1.5634-3.8899 6.2121-3.8899 4.4314 0 6.2229 1.0031 8.1193 4.5461 2.1839 4.0802 2.1446 5.0086-0.38283 9.0585-3.1535 5.053-7.2659 5.9017-8.762 1.8083zm-299.82-7.05c-6.427-16.34-53.41-114.55-55.987-117.03-1.0028-0.9675 7.383 17.264 18.635 40.514 17.906 36.998 36.657 78.735 39.839 88.675 0.57516 1.7966 1.4495 2.8426 1.9429 2.3246 0.49342-0.51802-1.5002-7.0348-4.4302-14.482zm235.67 0.14447c14.893-1.2687 16.631-1.9591 14.415-5.7246-1.0485-1.7812-3.9108-1.8437-14.271-0.31192-22.93 3.3903-23.642 3.5844-23.642 6.4495 0 2.0583 1.1151 2.4915 4.5546 1.7693 2.505-0.52602 11.03-1.508 18.944-2.1822zm26.28-5.9199c-0.47571-1.9099-2.2416-3.4509-3.9547-3.4509-1.9995 0-3.0951 1.2215-3.0951 3.4509 0 2.4948 1.0956 3.4509 3.9547 3.4509 3.1456 0 3.7788-0.70603 3.0951-3.4509zm-335.74-10.35c-1.0223-6.4603-1.2632-6.8463-1.4343-2.2979-0.18758 4.9847 1.2635 11.79 2.2534 10.568 0.22528-0.27817-0.14329-3.9998-0.81904-8.2702zm308.82 5.86c14.507-1.1498 14.935-1.3064 14.935-5.4703 0-4.0013-0.41792-4.2164-6.2809-3.232-3.4545 0.57997-11.404 1.5034-17.667 2.052-14.556 1.2752-15.494 1.6461-15.494 6.1233 0 3.189 0.68398 3.5771 4.7859 2.7157 2.6323-0.55274 11.507-1.5376 19.721-2.1887zm25.182-6.8123c-0.99293-5.4535-5.9037-5.0602-6.6639 0.53366-0.42042 3.0938 0.27157 3.8646 3.4698 3.8646 3.3956 0 3.8748-0.65984 3.1941-4.3982zm11.117 2.7049c0-0.93132-2.6607-13.549-5.9126-28.038-7.1974-32.07-8.9814-55.789-4.9539-65.863 3.3336-8.3387 5.1511-7.1426 2.7784 1.8286-0.96471 3.6477-1.6771 8.9615-1.5831 11.808 0.1366 4.1374 0.45982 3.618 1.6105-2.5882 0.7918-4.2704 3.5726-12.292 6.1796-17.826 5.4023-11.467 4.3576-13.138-5.5104-8.8087-4.1563 1.8233-13.046 3.0712-25.386 3.5636-29.764 1.1878-28.601 0.732-36.213 14.185-4.2715 7.5489-6.6082 13.774-6.6115 17.614-4e-3 4.4766 10.969 61.444 12.173 63.198 0.29379 0.42791 39.334-4.6415 39.84-5.1734 0.2181-0.22898-0.26063-3.5011-1.0638-7.2713-0.80319-3.7702-2.2336-12.678-3.1786-19.796-0.94504-7.1174-2.4433-17.169-3.3294-22.337-1.584-9.2385-1.0312-13.156 1.298-9.1987 0.65076 1.1055 3.303 14.865 5.8939 30.576 3.3808 20.502 5.3414 28.566 6.9445 28.566 2.8434 0 2.8073-3.1393-0.21098-18.329-3.3783-17.001-7.0857-52.424-5.5884-53.396 1.9027-1.2346 2.6002 0.99426 3.8169 12.197 1.6357 15.061 7.1202 49.801 10.147 64.272 2.1281 10.175 3.199 12.509 5.7382 12.509 1.717 0 3.1218-0.76198 3.1218-1.6933zm-38.106-6.8022c12.769-1.4003 16.652-2.5266 14.933-4.3311-0.39215-0.41171-8.4654 0.34013-17.941 1.6708-9.4752 1.3306-18.152 2.4439-19.282 2.474-1.1298 0.0301-2.0543 0.78229-2.0543 1.6716 0 0.88932 2.4035 1.256 5.3411 0.8149 2.9376-0.44112 11.489-1.4762 19.002-2.3002zm86.487-19.543c-1.0172-19.21-2.413-25.975-4.8346-23.433-0.87109 0.91456 4.461 44.567 5.444 44.569 0.28041 5e-4 6e-3 -9.5105-0.60935-21.136zm-61.528 15.96c0-0.94899-1.5227-1.7254-3.3838-1.7254s-2.9268 0.77645-2.3681 1.7254c0.55863 0.94898 2.0813 1.7254 3.3838 1.7254s2.3681-0.77645 2.3681-1.7254zm-149.55-47.18c0-0.32742-1.664-2.0744-3.6977-3.8822l-3.6977-3.2869 3.1307 3.8822c2.942 3.6483 4.2646 4.6677 4.2646 3.2869zm0-14.934c-1.0503-2.0605-2.2795-3.3582-2.7314-2.8837-0.45193 0.47449 0.0377 2.5486 1.088 4.6091s2.2795 3.3582 2.7314 2.8837c0.45194-0.47449-0.0377-2.5486-1.088-4.6091zm-144.62-25.88c-0.96747-1.898-2.1288-3.4509-2.5808-3.4509-0.45194 0-0.03012 1.5529 0.93735 3.4509s2.1288 3.4509 2.5808 3.4509c0.45194 0 0.03012-1.5529-0.93735-3.4509zm-46.52-6.44c-0.41667-1.6788-0.78499-0.72301-0.81848 2.124-0.033493 2.847 0.30742 4.2205 0.75759 3.0524 0.45016-1.1682 0.47756-3.4975 0.060888-5.1763zm256.24-12.88c-1.9627-10.303-4.5041-18.994-5.3078-18.15-0.44055 0.46256 0.50224 5.976 2.0951 12.252 2.9961 11.805 5.0597 15.593 3.2127 5.8976zm-22.966-18.926c-3.1867-9.8086-6.9065-22.104-8.2663-27.324-4.9588-19.035-19.371-66.341-21.573-70.812-1.3413-2.7233-1.6599-5.2256-0.78262-6.1468 0.87731-0.9211-2.978-7.6672-9.4703-16.571-6.0225-8.2597-11.118-14.841-11.323-14.626-0.20518 0.21542 4.0123 9.6922 9.3722 21.059 11.5 24.39 20.585 48.288 27.861 73.293 10.094 34.689 18.413 60.602 19.192 59.784 0.43118-0.4527-1.8234-8.8483-5.0101-18.657zm149.44-5.3689c4.2248-8.7537 11.238-22.904 15.585-31.445 4.3472-8.5409 10.881-22.668 14.52-31.393 7.1109-17.05 22.448-49.718 36.101-76.893 8.0307-15.985 10.449-23.478 6.816-21.121-0.90387 0.5865-1.6434 2.4381-1.6434 4.1146 0 1.6766-1.8488 4.8718-4.1085 7.1007-2.2597 2.2288-4.1085 4.673-4.1085 5.4314 0 1.5299-6.5652 15.518-20.125 42.881-4.9381 9.9644-9.9188 21.223-11.068 25.019-1.1496 3.796-3.1056 8.1272-4.3468 9.625s-7.4256 14.562-13.743 29.033c-6.3176 14.47-14.453 32.295-18.078 39.612-3.6254 7.3163-6.5916 13.903-6.5916 14.636 0 3.6953 3.8681-2.2548 10.791-16.6zm-86.446 12.985c-0.032-0.71174-1.1924-3.2352-2.5786-5.6077s-2.0995-2.8913-1.5852-1.153c0.51437 1.7383 0.93521 4.2618 0.93521 5.6077 0 1.3458 0.73953 2.447 1.6434 2.447s1.6172-0.58233 1.5852-1.2941zm-61.417-35.034c-10.905-35.067-21.948-64.608-26.59-71.131-3.252-4.5696-3.4518-5.1648 8.8537 26.363 5.3707 13.76 12.848 35.113 16.616 47.449 7.657 25.067 10.188 32.304 11.001 31.451 0.30405-0.31924-4.1426-15.679-9.8813-34.133zm-225.87 26.75c-1.4556-3.3717-2.8688-5.4304-3.1404-4.5749-0.7469 2.3525 2.6107 10.705 4.3033 10.705 0.81602 0 0.29274-2.7587-1.1629-6.1304zm308.72 0.36c0-0.32742-1.664-2.0744-3.6977-3.8822l-3.6977-3.2869 3.1307 3.8822c2.9421 3.6483 4.2647 4.6677 4.2647 3.2869zm46.015-15.551c0-2.1922-0.75909-1.2134-3.1549 4.0682-1.845 4.0673-1.8108 4.1224 0.59909 0.96429 1.4057-1.8421 2.5558-4.1067 2.5558-5.0325zm-11.504 3.4655c0-2.3779 9.7745-22.67 14.67-30.455 5.009-7.9657 8.3057-21.402 11.642-47.449 1.8233-14.235 4.1666-30.216 5.2073-35.513 2.1836-11.115 0.9876-17.057-10.043-49.896-3.823-11.381-6.6696-23.02-6.6754-27.294l-0.0102-7.4517-13.335 1.2213c-12.552 1.1496-13.661 1.5867-18.898 7.4517-6.8712 7.6943-8.1776 12.423-5.7664 20.872 1.0304 3.6107 1.4144 7.8206 0.85337 9.3555-0.56101 1.5349-0.30179 3.7514 0.57602 4.9255 0.8778 1.1742 2.0867 4.8439 2.6865 8.155 0.59976 3.3111 3.917 10.299 7.3716 15.529 9.086 13.755 18.176 30.627 17.106 31.75-0.50699 0.53232-1.4481 9.888-2.0914 20.79-1.0407 17.638-1.6385 20.468-5.4253 25.681-2.3407 3.2219-6.8859 7.1684-10.1 8.77-3.2146 1.6015-5.8447 3.2946-5.8447 3.7624 0 0.46777 1.4272 3.7877 3.1715 7.3775 1.7444 3.5898 5.1702 12.876 7.6131 20.636 3.9956 12.693 7.2929 18.019 7.2929 11.781zm3.283-48.577c-1.7051-2.1571-0.93123-3.8669 4.6042-10.172 11.583-13.193 12.327-21.827 6.0021-69.63-4.0944-30.945-4.7437-50.513-1.6753-50.492 0.84253 6e-3 1.702 5.2558 1.9098 11.667 0.20788 6.4107 2.3277 24.467 4.7108 40.126 5.048 33.169 5.685 55.766 1.7946 63.665-2.9921 6.0748-12.129 17.43-14.025 17.43-0.69957 0-2.1943-1.1668-3.3216-2.593zm-75.681 39.938c-1.5824-1.5312-1.801-1.2652-0.97582 1.1871 0.58497 1.7383 1.1494 4.0677 1.2542 5.1763 0.10485 1.1086 0.54397 0.57441 0.97582-1.1871 0.43186-1.7615-0.13254-4.0909-1.2542-5.1763zm-34.22 1.88c-1.6231-1.6914-1.8118-1.4932-0.91998 0.9659 0.61714 1.7016 1.5361 2.6593 2.0421 2.128 0.50599-0.53124 1e-3 -1.9235-1.1221-3.0939zm-240.05-9.1029c-1.7845-3.7557-3.274-5.8844-3.31-4.7303-0.091045 2.9172 5.4893 14.914 6.0767 13.064 0.26283-0.82786-0.98218-4.5781-2.7667-8.3338zm375.24 6.8852c0.56121-1.5355 0.28571-2.2281-0.64587-1.6236-0.89352 0.57978-1.6246 1.7848-1.6246 2.6778 0 2.4819 1.1779 1.935 2.2705-1.0542zm-137.55-6.2729c-0.52461-1.3764-0.91403-0.96759-0.99288 1.0424-0.0714 1.8189 0.31704 2.838 0.86315 2.2646 0.54609-0.57334 0.60446-2.0615 0.12973-3.3071zm16.862-4.4971c-1.0801-3.7851-3.7648-9.1017-5.9659-11.815-4.5518-5.6102-4.4998-5.3706 1.9985 9.2191 5.3185 11.941 6.9362 12.999 3.9674 2.5956zm-67.525-14.201c-4.7626-10.66-8.9024-18.617-9.1996-17.681-0.65864 2.0746 16.008 39.006 17.09 37.87 0.42267-0.44375-3.1282-9.529-7.8908-20.189zm197.31 4.3555c0-0.94899-1.4171 0.99212-3.149 4.3136-1.732 3.3215-3.149 6.8155-3.149 7.7644 0 0.94899 1.4171-0.99212 3.149-4.3136 1.732-3.3215 3.149-6.8155 3.149-7.7644zm-150.39 2.02c-1.4378-4.4303-3.2929-8.4955-4.1226-9.0338-0.82962-0.53832-0.0209 2.9835 1.7972 7.8263s3.3056 9.294 3.3056 9.8915c0 0.59752 0.36762 0.70046 0.81691 0.22872 0.44931-0.47173-0.35945-4.4824-1.7972-8.9127zm-234.68-4.02c-2.2798-4.6005-4.1796-7.6732-4.2217-6.8281-0.10937 2.1961 6.9382 16.693 7.7175 15.874 0.35716-0.37499-1.216-4.4458-3.4958-9.0463zm239.58-5.9924c-1.5248-4.1516-3.7882-8.6999-5.0296-10.107-1.2415-1.4073-0.23573 2.2434 2.235 8.1127 5.0872 12.085 7.0026 13.452 2.7946 1.9945zm-13.059-15.901c-0.58459-2.4455-2.0642-5.3188-3.2879-6.3852-1.6865-1.4695-1.5854-0.22926 0.41747 5.1241 2.8678 7.6652 4.5813 8.418 2.8704 1.2611zm110.7-1.0292c0.41085-1.2941-0.20542-1.9411-1.438-1.5098-1.1863 0.4152-2.4805 1.774-2.876 3.0195-0.41085 1.2941 0.20542 1.9411 1.438 1.5098 1.1863-0.4152 2.4805-1.774 2.876-3.0195zm3.9698-17.312c-0.30445-0.44701-1.1965 0.2795-1.9823 1.6145-1.2259 2.0825-1.8302 2.0775-4.2551-0.0355-2.1586-1.881-1.9071-0.63191 1.0649 5.2872l3.8912 7.75 0.91745-6.9017c0.50459-3.796 0.66836-7.2675 0.36392-7.7145zm50.34-21.618c0-3.4509 0-3.4509-1.4124 0-0.77682 1.898-1.4124 5.0038-1.4124 6.9017 0 3.4509 0 3.4509 1.4124 0 0.77683-1.898 1.4124-5.0038 1.4124-6.9017zm50.993-19.396c7.2934-14.464 13.726-28.246 14.295-30.626 1.9747-8.2604-1.814-4.2483-6.9195 7.3275-2.823 6.4007-9.3446 20.955-14.492 32.343-12.406 27.445-9.2793 23.471 7.1164-9.0439zm-448.21 16.93c-4.3237-8.5131-6.3981-10.308-4.4444-3.8448 0.96907 3.2056 7.0705 12.35 8.2402 12.35 0.2882 0-1.4199-3.8275-3.7958-8.5055zm338.43-0.31c-0.866-2.273-1.6214-3.2257-1.6787-2.1171-0.13916 2.6928 1.7753 7.8016 2.5993 6.9364 0.35969-0.37764-0.0546-2.5464-0.92055-4.8194zm-20.691-5.006c-1.641-1.9038-3.3401-3.0872-3.7757-2.6298-1.1042 1.1594 2.9946 6.0913 5.0625 6.0913 0.93329 0 0.35425-1.5576-1.2868-3.4614zm27.266-0.76105c0.82667 0.5364 1.503 0.0883 1.503-0.99577 0-2.5594-3.7829-1.2492-4.2934 1.487-0.21467 1.1506-0.0129 1.2914 0.44851 0.31277 0.46135-0.97864 1.5152-1.3404 2.3418-0.80402zm-10.001-6.1301c0-3.4509-0.82171-5.1763-2.4651-5.1763-2.9641 0-2.9959 0.33991-0.55791 5.9578 2.4662 5.6828 3.023 5.5388 3.023-0.78153zm55.365-3.0195c-0.41337-1.6607-0.75158-0.30195-0.75158 3.0195 0 3.3215 0.33821 4.6802 0.75158 3.0195 0.41335-1.6607 0.41335-4.3783 0-6.039zm-88.136 3.4509c0.0534-0.71174 0.30552-4.0116 0.56037-7.3331 0.25484-3.3215 2.3217-9.8585 4.593-14.527l4.1296-8.4878-8.3876-13.017c-5.1656-8.0167-20.856-26.079-40.845-47.021-17.852-18.702-32.457-33.833-32.457-33.624 0 1.818 28.803 57.122 36.054 69.227 32.783 54.727 35.994 59.567 36.353 54.782zm106.48-15.941c-1.9957-2.834-3.8154-4.9565-4.0438-4.7167-0.22844 0.23984 0.79833 5.0141 2.2817 10.61 2.6642 10.05 2.7134 10.107 4.0438 4.7167 1.0781-4.368 0.62279-6.4849-2.2817-10.61zm-90.141 9.5317c0-0.44111-1.664-1.6486-3.6977-2.6833-3.5508-1.8066-3.5709-1.7747-0.50759 0.802 3.353 2.8204 4.2053 3.2017 4.2053 1.8813zm-221.65-19.19c-8.2518-8.1556-15.003-15.8-15.003-16.987 0-1.1872-1.5769-3.6377-3.5043-5.4455l-3.5043-3.2869 3.365 6.9017c1.8508 3.796 6.201 9.7541 9.6671 13.24 6.4383 6.4757 22.235 20.233 23.359 20.344 0.34287 0.0339-6.1281-6.6112-14.38-14.767zm235.81 13.595c-1.7021-0.45833-4.9129-2.8917-7.1352-5.4075l-4.0405-4.5742 3.5494 5.6077c2.3231 3.6702 4.7883 5.5385 7.1352 5.4075 3.0941-0.17271 3.1614-0.31442 0.4911-1.0334zm163.28-4.8054c0-0.94899-0.71687-0.56077-1.5931 0.86272-0.8762 1.4235-1.5931 3.3646-1.5931 4.3136 0 0.94898 0.71687 0.56076 1.5931-0.86272 0.8762-1.4235 1.5931-3.3646 1.5931-4.3136zm-338.74-5.6077c-1.9176-5.4567-3.8601-10.309-4.3166-10.784-1.2724-1.3225 1.2191 8.5957 3.7686 15.002 3.8255 9.6127 4.2528 6.324 0.54808-4.218zm162.61 4.8234c-1.1033-1.8548-2.3242-3.0382-2.7132-2.6299-0.70435 0.73952 2.8772 6.0022 4.0848 6.0022 0.34892 0-0.26828-1.5176-1.3716-3.3724zm-288.91-10.97c0-0.29694-2.4035-2.8204-5.3411-5.6076l-5.3411-5.0678 4.8268 5.6076c4.4993 5.2271 5.8553 6.4008 5.8553 5.0678zm513.56-1.1855c0.55863-0.94898 0.27614-1.7254-0.62773-1.7254s-2.1005 0.77645-2.6591 1.7254c-0.55863 0.94899-0.27614 1.7254 0.62773 1.7254s2.1004-0.77645 2.6591-1.7254zm-219.47-7.0495c-1.0089-1.9792-2.2496-3.1627-2.7571-2.6298-0.50751 0.53283 0.0127 2.1522 1.1561 3.5986 2.9546 3.7377 3.7537 3.2542 1.601-0.9688zm256.72-12.188c9.1998-7.5986 39.172-58.57 39.172-66.616 0-2.2222 1.0219-6.137 2.2708-8.6996s2.7126-8.1533 3.2526-12.424c0.66708-5.2754 0.5393-6.3816-0.39859-3.4509-2.3372 7.3033-9.1248 21.222-21.18 43.431-6.3509 11.7-14.396 27.096-17.878 34.214-4.5345 9.2693-7.331 13.09-9.8567 13.468-1.9393 0.29025-4.8974 2.1404-6.5736 4.1115-3.0096 3.5391-2.9964 3.5673 1.0609 2.2614 2.2597-0.7273 6.818-3.5603 10.13-6.2956zm-113.29-3.62c0.33595-3.5587 0.0198-6.4704-0.70259-6.4704-0.72237 0-1.255 3.6881-1.1837 8.1958 0.14281 9.0213 0.94065 8.2915 1.8862-1.7254zm157.39 2.2109c0-0.91919-1.1093-1.2244-2.4651-0.67811-1.3558 0.54625-2.4651 1.2983-2.4651 1.6713 0 0.37296 1.1093 0.67812 2.4651 0.67812s2.4651-0.75208 2.4651-1.6713zm-235.11-18.86c-2.8937-9.5839-5.981-17.425-6.8606-17.425-0.87963 0-1.2759 0.97056-0.88063 2.1568 4.4931 13.483 12.072 33.669 12.48 33.241 0.28711-0.30081-1.8456-8.3883-4.7392-17.972zm66.067 6.6136-1.4808-9.3726-0.19213 11.129c-0.13034 7.5503 0.34584 10.564 1.4808 9.3726 1.0946-1.1492 1.161-4.9969 0.19212-11.129zm22.057-14.98c-1.0946-22.713-7.3925-78.751-8.6967-77.382-0.40516 0.42537 0.48113 10.343 1.9695 22.039 2.6029 20.454 5.4144 60.075 5.0902 71.734-0.0857 3.0842 0.48604 5.6077 1.2706 5.6077 0.78727 0 0.95143-9.8583 0.36634-21.999zm-158.12 17.61c-0.53524-1.4644-1.3256-2.2925-1.7564-1.8402-0.43078 0.45229-0.29578 1.6504 0.30001 2.6626 1.6205 2.7529 2.5676 2.2181 1.4564-0.82234zm171.79-39.611c-0.19359-25-3.7435-85.413-5.5171-93.891-0.78081-3.7325-2.4293-5.271-7.284-6.7981-8.3613-2.6301-8.5652-2.5782-7.4963 1.9084 0.50868 2.1352 2.7166 15.529 4.9064 29.764l3.9815 25.881-0.88859-26.313c-0.55015-16.291-0.28831-26.313 0.68748-26.313 3.4575 0 6.7608 45.033 7.0244 95.762 0.20999 40.415 0.36758 42.537 2.4988 33.646 1.4583-6.084 2.2075-18.159 2.0876-33.646zm-25.971-5.1763-1.6217-12.078 0.73946 12.078c0.4067 6.6429 0.89525 18.29 1.0856 25.881l0.34619 13.803 0.53601-13.803c0.29481-7.5919-0.19374-19.239-1.0856-25.881zm277.21 35.233c-1.5818-0.96728-2.876-2.9306-2.876-4.363 0-3.1979-2.6703-1.6577-4.9792 2.8718-1.5553 3.0512-1.1472 3.35 4.5105 3.3023 5.0234-0.0424 5.6671-0.39095 3.3446-1.8112zm-323.9-5.4694c-0.45589-1.1862-0.82891-0.21568-0.82891 2.1568s0.37302 3.343 0.82891 2.1568c0.4559-1.1862 0.4559-3.1274 0-4.3136zm-245.79-6.58c-1.4068-4.8134-2.8038-7.9768-3.1044-7.03-0.809 2.5481 2.8477 15.782 4.3608 15.782 0.71578 0 0.1504-3.9382-1.2564-8.7516zm12.284 4.3677c-1.6686-6.9802-7.7874-23.523-8.4451-22.833-1.1713 1.2298 6.4057 27.216 7.9356 27.216 0.85661 0 1.0859-1.9727 0.5095-4.3839zm10.552 3.6335c0-2.318-3.5142-9.9386-4.2345-9.1824-1.2964 1.3611 1.0934 9.9328 2.7692 9.9328 0.80588 0 1.4652-0.33768 1.4652-0.75039zm306.16-39.797c-0.18462-14.235-0.71108-28.987-1.1699-32.783-0.45883-3.796-1.2679-13.502-1.7979-21.568-1.512-23.011-2.0293-25.127-6.689-27.356-2.3022-1.1013-3.7624-1.283-3.2448-0.40375 1.8185 3.0893 7.4033 45.926 8.5012 65.207 0.62305 10.941 1.8243 19.492 2.7384 19.492 1.5435 0 1.0116 9.3816-1.3748 24.247-0.86161 5.3672-0.74358 5.611 1.2088 2.4971 1.5888-2.534 2.0745-10.328 1.828-29.332zm-178.06 22.843c4.3202-4.9212 4.9966-6.4514 2.8518-6.4514-2.6066 0-9.3169 9.2029-9.3308 12.797-3e-3 0.86989 0.17873 1.2496 0.4047 0.84368 0.22597-0.40589 2.9594-3.6411 6.0743-7.1893zm-2.0639-8.4368c1.5234-1.8335 1.7653-3.2383 0.67904-3.9432-1.7285-1.1216-8.4398 10.91-8.3213 14.918 0.0362 1.224 1.238-0.1038 2.6708-2.9508 1.4327-2.847 3.6699-6.458 4.9715-8.0245zm206.17-44.804c2.0183-18.29 2.0151-18.328-1.9813-23.607-5.3085-7.0111-8.9244-8.684-7.331-3.3917 0.64711 2.1493 1.6119 18.272 2.144 35.828 0.96314 31.776 0.97697 31.87 3.0571 20.705 1.1493-6.1684 2.9993-19.459 4.1112-29.535zm-65.883 6.7817c-0.96933-8.8378-2.5036-24.221-3.4094-34.186-2.7506-30.257-3.2124-32.783-5.9942-32.783-1.8066 0-2.2832 1.1237-1.6465 3.8822 1.3513 5.8546 9.0106 59.241 10.335 72.037 0.6385 6.1684 1.4571 10.294 1.8191 9.167 0.36203-1.1266-0.13486-9.2792-1.1042-18.117zm19.124-2.6967c-0.41336-1.6607-0.75158-0.30195-0.75158 3.0195s0.33822 4.6802 0.75158 3.0195c0.41335-1.6607 0.41335-4.3783 0-6.039zm31.753-39.203c-2.495-6.89-3.2641-4.8285-1.5906 4.2634 0.78608 4.2704 1.6103 12.035 1.8315 17.254 0.34396 8.1138 0.4828 7.5929 0.95744-3.5927 0.30533-7.1954-0.23395-15.262-1.1984-17.925zm-45.977 2.2876c-2.2636-22.594-3.1878-27.357-5.3087-27.357-0.99339 0-1.3093 1.9794-0.7572 4.7449 0.52096 2.6097 2.2357 13.064 3.8106 23.232 1.5748 10.168 3.1293 18.208 3.4543 17.867 0.32503-0.34125-0.21451-8.6605-1.199-18.487zm40.193 6.7207c-1.3284-14.337-2.2254-18.548-3.9508-18.548-0.79679 0-0.85736 2.8838-0.13592 6.4704 0.71582 3.5587 1.7918 10.158 2.3911 14.666 1.591 11.967 2.8642 10.023 1.6957-2.5882zm170.33 6.039c2.8429-7.5437 11.044-38.839 12.246-46.729 0.70952-4.6586 0.47846-7.1912-0.65606-7.1912-0.96324 0-1.671 1.3588-1.5728 3.0195s-1.3424 8.0664-3.2013 14.235c-1.8589 6.1684-5.0416 17.039-7.0726 24.156-2.031 7.1174-4.0434 13.911-4.472 15.098-0.42855 1.1862 0.0578 2.1568 1.0807 2.1568 1.023 0 2.6646-2.1352 3.6481-4.7449zm-430.82-10.89c-0.88843-3.2523-1.6153-8.8575-1.6153-12.456 0-6.0771-0.24148-6.4068-3.3946-4.635-2.9172 1.6392-4.1794 1.0338-8.9751-4.3048-3.0692-3.4168-6.8778-8.5182-8.4635-11.337-1.5857-2.8184-3.4304-5.1243-4.0993-5.1243-1.6186 0 2.5805 12.305 6.2881 18.427 3.6202 5.9774 20.661 26.618 21.365 25.879 0.2806-0.2946-0.21671-3.1966-1.1051-6.449zm424.96-13.682c3.999-20.136 1.0794-29.66-4.626-15.091-3.0022 7.6666-3.6038 15.996-1.8283 25.317 1.4829 7.7848 3.5177 4.561 6.4543-10.226zm-480.97-16.06c0.0901-2.6568 1.2818-7.1006 2.6483-9.8749 2.2489-4.5659 2.2369-4.9445-0.12589-3.9926-3.7205 1.4989-5.671 8.0386-5.4816 18.379 0.12944 7.069 0.43991 8.0411 1.4796 4.6326 0.72367-2.3725 1.3895-6.4874 1.4796-9.1442zm521.16-19.757c1.9582-9.2526 6.1241-27.618 9.2576-40.812 4.48-18.864 5.247-24.281 3.5899-25.356-1.159-0.75203-2.301-1.1639-2.5378-0.91522-0.23683 0.24865-2.6685 12.824-5.4036 27.944-2.7352 15.121-6.3652 33.898-8.0668 41.727-1.7016 7.8292-2.4876 14.235-1.7467 14.235 0.74088 0 2.9493-7.5703 4.9075-16.823zm-17.298-11.691c9.9025-53.65 11.091-58.854 13.271-58.076 0.83885 0.29946 1.3714 1.4641 1.1834 2.5882-0.18799 1.124-2.2217 12.846-4.5194 26.049s-4.1191 25.238-4.0477 26.744c0.17952 3.7853 11.29-48.089 11.337-52.928 0.0296-3.0976-1.872-4.7905-9.2059-8.1958-5.0838-2.3605-9.521-4.2918-9.8604-4.2918-0.33946 0-0.61721 2.0242-0.61721 4.4982 0 3.3898 0.6395 4.2405 2.5953 3.4526 2.1558-0.86857 2.4142-0.0963 1.5259 4.5603-1.9886 10.424-4.3788 16.858-5.8971 15.873-2.0374-1.322-1.9178-10.558 0.19026-14.694 1.0556-2.0708 1.0976-3.3374 0.11074-3.3374-2.365 0-3.1077 3.9656-5.0082 26.744-0.95011 11.388-2.1242 24.393-2.6091 28.901-0.52822 4.9107-0.22556 8.1958 0.75508 8.1958 2.0395 0 3.7498-6.7524 9.1773-36.234 5.2188-28.348 5.5642-29.646 7.5454-28.36 1.786 1.1589 1.5613 2.7397-6.1001 42.916-6.1603 32.304-6.3131 33.499-3.9689 31.038 0.88195-0.92597 2.7464-7.8752 4.1431-15.443zm4.5065 12.175c0.42673-2.3437 0.14317-3.8508-0.63013-3.349-1.3617 0.88356-2.0475 7.6104-0.77589 7.6104 0.34658 0 0.97928-1.9176 1.406-4.2614zm0.7299-9.8656c-0.52461-1.3764-0.91403-0.96759-0.99288 1.0425-0.0714 1.8189 0.31706 2.838 0.86315 2.2646 0.54609-0.57336 0.60446-2.0615 0.12973-3.3071zm32.41-42.112c0.0867-3.8856 1.1725-8.3501 2.413-9.9212 1.9685-2.4931 1.8437-2.8566-0.98067-2.8566-2.8126 0-3.591 2.2018-5.9474 16.823-1.4912 9.2526-3.1129 18.764-3.6039 21.137-0.49096 2.3725 1.0995-0.73331 3.5343-6.9017s4.4979-14.394 4.5846-18.28zm16.274 13.511c1.3259-4.0405 1.8081-7.7374 1.0716-8.2153-1.4119-0.91619-2.2521 1.3855-4.1101 11.259-1.4603 7.7606-0.0402 6.3379 3.0384-3.044zm35.593-1.1833c0.10526-2.9628-2.8126 1.4522-3.9341 5.9528l-1.075 4.3136 2.4754-4.3136c1.3615-2.3725 2.5016-5.0512 2.5337-5.9528zm8.7514 5.9528c0.47275-1.898 0.18922-3.4509-0.63003-3.4509s-1.4896 1.5529-1.4896 3.4509 0.28352 3.4509 0.63003 3.4509 1.0168-1.5529 1.4896-3.4509zm-22.637-10.039c-1.3215-1.3874-2.0214 0.0668-3.1709 6.5877l-1.0645 6.039 2.5412-5.8687c1.3976-3.2278 2.16-6.2689 1.6942-6.7579zm-28.926-3.7649c0.0803-2.3006-0.0867-2.3006-1.5027 0-0.8762 1.4235-1.5524 4.141-1.5027 6.039 0.0903 3.4509 0.0903 3.4509 1.5027 0 0.77682-1.898 1.453-4.6155 1.5027-6.039zm17.169 6.039c0.52027-1.4235 0.22962-2.5882-0.64587-2.5882-0.87551 0-1.5918 1.1647-1.5918 2.5882s0.29065 2.5882 0.64587 2.5882c0.35524 0 1.0716-1.1647 1.5918-2.5882zm73.967-16.823c1.8136-7.1051 1.2115-8.1958-4.5244-8.1958-4.1781 0-5.7739 0.85778-6.4198 3.4509-0.53246 2.1378-2.2416 3.4509-4.4919 3.4509-2.8692 0-3.4446-0.7536-2.7389-3.5872 0.60566-2.4317 0.22872-3.3193-1.1703-2.7557-1.135 0.45731-5.59 0.13982-9.8998-0.70554s-17.689-2.736-29.732-4.2014-29.483-4.1823-38.756-6.0374-17.109-3.1117-17.413-2.7924c-2.0762 2.1798 44.708 12.97 71.81 16.563 7.6829 1.0183 19.515 3.3056 26.295 5.0828 16.127 4.2278 15.892 4.2315 17.042-0.27162zm-116.2-5.1763c-0.4559-1.1862-0.82892-0.21568-0.82892 2.1568s0.37302 3.343 0.82892 2.1568c0.45589-1.1862 0.45589-3.1273 0-4.3136zm90.56-19.063c-3.8573-4.0788-9.453-10.672-12.435-14.651-2.9818-3.979-6.9645-8.1016-8.8504-9.1614-3.1742-1.7836-3.3454-1.5769-2.3036 2.781 0.61897 2.5893 2.2633 5.9024 3.654 7.3626 1.7179 1.8036 2.3467 5.0563 1.9613 10.145-0.62694 8.2763-0.56554 8.314 15.89 9.7758 3.6155 0.32116 7.1413 0.71445 7.835 0.87399 0.69378 0.15951-1.8946-3.0472-5.7519-7.126zm-25.927-2.5052c-1.3942-7.4131-3.2271-12.509-4.4992-12.509-0.48155 0-1.821 1.3576-2.9766 3.0168-3.8288 5.4976-4.8517 0.31453-1.2866-6.519l3.5026-6.7136-3.2532-6.3727c-3.054-5.9825-3.1056-6.988-0.84236-16.421 2.0731-8.6405 2.0962-11.624 0.16503-21.297-1.2352-6.1868-4.3845-15.716-6.9985-21.176-2.614-5.4598-5.2867-12.645-5.9394-15.966-2.0402-10.382-8.799-20.758-15.401-23.645-3.3033-1.4443-8.445-5.256-11.426-8.4703-4.3272-4.6658-6.7097-5.8443-11.815-5.8443-5.0988 0-7.9336-1.3985-13.99-6.9017-10.236-9.3011-15.107-9.2231-22.926 0.36705-3.2593 3.9978-7.6972 11.2-9.862 16.004-2.1648 4.8044-5.4545 10.178-7.3105 11.942-4.4787 4.2555-2.9927 6.196 4.7446 6.196 6.7139 0 11.524 3.4526 11.524 8.2716 0 5.1124 5.4248-4.8769 9.9406-18.305 2.3346-6.9418 4.9355-12.765 5.7799-12.941 0.84438-0.17555 1.7757 2.3276 2.0697 5.5625 0.57179 6.2926-3.3635 18.981-8.0762 26.039-2.3878 3.5762-2.6474 5.9961-1.5188 14.156 1.1036 7.9786 2.5079 11.083 7.416 16.392 3.3301 3.602 7.4659 6.6372 9.1907 6.7449 2.8578 0.17841 3.1356-1.1228 3.1314-14.666-3e-3 -11.283 0.77249-16.524 3.222-21.764 1.7746-3.796 4.4655-10.59 5.9798-15.098 2.6276-7.8218 7.2369-11.277 7.2369-5.4253 0 5.1335-5.1469 23.931-7.9815 29.15-3.3439 6.1567-2.944 23.293 0.54354 23.293 1.1579 0 3.0899 1.2456 4.2932 2.7679 1.2034 1.5223 3.8823 3.4442 5.9532 4.2709 4.7837 1.9095 4.6822 3.3961-0.50223 7.3615-4.0128 3.0692-4.283 3.072-7.4356 0.0766-2.6372-2.5058-3.866-2.7186-6.338-1.0978-2.4747 1.6226-4.4346 1.2748-10.155-1.802-3.8985-2.097-8.191-5.3656-9.5389-7.2636s-4.2594-5.2165-6.47-7.3745c-3.2165-3.14-4.218-6.2414-5.0146-15.529-0.91478-10.666-1.094-11.101-2.2147-5.3718-0.67066 3.4284-2.684 7.6251-4.4741 9.3259-5.2313 4.9706-3.9837 8.9723 4.5515 14.6 4.2934 2.8307 9.1004 5.1614 10.682 5.1795 1.5818 0.018 2.876 0.65394 2.876 1.4131 0 2.7533-3.75 5.227-6.363 4.1974-5.7534-2.2671-19.933-12.699-19.968-14.689-0.0199-1.1571-1.5773 1.3902-3.4609 5.6607-3.2654 7.403-3.5052 7.583-5.1515 3.8675-1.2411-2.8011-1.1755-5.167 0.23329-8.4133 1.8028-4.1542 1.6885-4.4418-1.4258-3.5867-3.9686 1.0896-14.81-1.7211-14.81-3.8396 0-0.8015-1.9014-1.9583-4.2253-2.5707-2.3401-0.61666-3.8982-2.0473-3.4922-3.2066 0.40316-1.1512 1.7499-1.7714 2.9927-1.3781 1.2428 0.39329 6.3271 1.4683 11.298 2.3888 15.093 2.7949 25.106-3.9966 24.457-16.588-0.14234-2.7595-0.47268-2.3826-1.2326 1.4064-1.5064 7.5113-10.027 11.791-17.202 8.6416-6.3949-2.8073-8.0327-9.9784-2.9333-12.844 3.3794-1.8989 6.6734 0.4079 3.5118 2.4594-0.91861 0.59607-1.6702 2.2026-1.6702 3.5701 0 3.6688 7.6993 3.0852 11.093-0.84087 7.3252-8.4745 7.4047-8.7528 2.1887-7.6575-2.6734 0.56135-8.7892-0.18445-13.591-1.6574-4.8014-1.4729-11.501-3.0641-14.888-3.5359-5.472-0.76228-6.6169-0.22683-10.271 4.8034-5.234 7.2046-5.1653 8.9565 0.73404 18.723 2.6658 4.4133 5.6473 11.145 6.6257 14.96 1.2986 5.0632 5.2891 10.646 14.78 20.678 7.1506 7.5581 14.188 16.152 15.639 19.098 2.8238 5.7332 3.468 6.0873 26.868 14.773 8.4416 3.1333 15.809 6.1805 16.372 6.7716 0.56295 0.59105 0.17996 2.4928-0.85109 4.2262-1.5782 2.6533-1.2242 3.4627 2.2386 5.1193 6.1604 2.947 17.219 5.3805 40.024 8.8077 30.639 4.6044 29.379 4.7398 27.923-3.0006zm-48.277-9.2109c-4.815-3.9765-9.681-12.6-8.0664-14.295 2.0532-2.1556 3.7372-0.97516 6.4569 4.5262 1.6854 3.4093 3.063 4.703 3.5139 3.2999 0.40791-1.2693-0.0811-3.1716-1.0866-4.2273-2.252-2.3644-2.3882-7.5641-0.23461-8.9616 0.87651-0.56876 2.6627 1.6522 3.9694 4.9356 2.6939 6.7691 6.4695 9.3839 16.022 11.096 9.6149 1.7233 7.1501 4.751-3.2918 4.0435-6.101-0.41335-8.4793-0.0141-7.7092 1.2941 1.951 3.3144-4.9907 2.0735-9.5737-1.7114zm-19.89-11.39c-3.7992-0.92117-25.19-7.2278-28.584-8.4274-1.2592-0.44508-1.8606-1.2595-1.3364-1.8099 1.4478-1.5201 37.297 8.3444 36.325 9.9955-0.88923 1.5106-1.1337 1.5198-6.405 0.24176zm2.5229-29.747c-2.3316-4.574-2.1324-7.0152 0.57221-7.0152 1.9474 0 4.2035 4.7775 4.2778 9.0585 0.0447 2.5775-3.189 1.2151-4.85-2.0434zm20.315-7.7758c0.23522-2.3163 1.3252-5.3468 2.422-6.7345 3.065-3.8774 4.9624-12.458 3.347-15.136-1.0386-1.7217-1.4474-1.7862-1.4656-0.23107-0.0138 1.1862-1.1345 2.1568-2.4903 2.1568s-2.4651-1.2129-2.4651-2.6953c0-3.7396 5.0836-20.225 6.8796-22.309 2.0235-2.3484 4.8065 2.5682 3.6543 6.456-1.5579 5.2563 2.8107 3.2647 4.7655-2.1725 2.104-5.8524 4.9741-5.9523 5.7783-0.20127 0.36832 2.634-1.336 5.6257-5.4696 9.6009-3.9212 3.7709-5.3504 6.1991-4.1191 6.998 1.0371 0.67292 1.6893 4.0778 1.4493 7.5664-0.23991 3.4886 0.0811 7.2218 0.71343 8.2959 1.9198 3.2613-0.34832 6.7234-6.3844 9.7454-7.2624 3.636-7.1236 3.6642-6.6154-1.34zm-36.053-35.588c-0.59578-1.0121-0.82432-2.1082-0.50785-2.4358 1.1311-1.1707 9.6142 1.2573 9.6142 2.7517 0 2.1668-7.8042 1.896-9.1063-0.31594zm-458.76 89.32c-3.6558-2.347-2.378-6.5938 2.5745-8.5564 6.8988-2.734 6.2429-10.663-1.3329-16.113-3.0615-2.2025-6.2476-3.5624-7.0802-3.0221-0.83263 0.54028 0.81083 2.4666 3.6521 4.2808 5.9414 3.7935 5.7093 7.1115-1.1716 16.75-3.4726 4.8641-3.831 6.4154-2.2986 9.9466 1.739 4.0073 1.942 4.0553 4.8108 1.1388 2.3607-2.3999 2.5399-3.3372 0.84592-4.4247zm462.1 2.232c-1.641-1.9038-3.3656-3.0604-3.8324-2.5703-0.46681 0.49013 0.57633 2.0231 2.3181 3.4066 4.4439 3.5298 5.0088 3.2179 1.5143-0.83625zm-479.87-21.73c-6.2632-5.0682-9.0387-6.1675-9.0387-3.5799 0 1.3196 2.4035 3.2088 5.3411 4.1981 7.277 2.4509 7.4539 2.4213 3.6977-0.61827zm10.682-1.4632c0-0.42997-2.7732-2.1134-6.1628-3.741-3.3895-1.6276-6.7174-3.2627-7.3953-3.6336-0.6779-0.37093-1.2326-0.25892-1.2326 0.24891 0 1.0165 11.587 7.7093 13.558 7.8312 0.67791 0.0419 1.2326-0.27554 1.2326-0.7055zm48.351-50.761c1.1498-1.9534-9.2107-3.7164-14.043-2.3897-3.5254 0.96794-3.5544 1.0955-0.5301 2.3381 4.4574 1.8314 13.506 1.8634 14.573 0.0516zm375.65-44.133c0-2.3253 1.015-4.8488 2.2556-5.6077 2.1619-1.3225 9.2483-15.188 9.2483-18.096 0-0.77074-4.3835-1.4014-9.7412-1.4014-8.5621 0-10.153 0.54938-13.142 4.5388-3.0827 4.1146-7.6577 17.521-6.3956 18.742 0.72731 0.70344 15.042 5.869 16.542 5.9692 0.67791 0.0453 1.2326-1.8202 1.2326-4.1455zm-496.31 690.08c0-1.4235 0.8361-2.5882 1.858-2.5882 2.9911 0 17.342-11.432 36.762-29.284 25.837-23.751 50.053-43.834 51.289-42.536 1.494 1.5686-5.2142 8.6822-31.377 33.273-26.341 24.759-38.475 34.836-48.195 40.028-8.1817 4.3698-10.337 4.6006-10.337 1.1072zm16.434-0.42871c0-0.8382 3.0077-3.2988 6.6838-5.468 9.1389-5.3927 26.646-20.414 49.192-42.209 18.236-17.628 21.364-20.086 21.364-16.79 0 2.1198-35.3 38.381-44.372 45.581-16.805 13.336-32.868 22.566-32.868 18.886zm-25.461-10.767c-0.55238-0.93841 5.3292-5.996 13.07-11.239 17.933-12.146 43.889-32.814 57.638-45.897 10.063-9.5745 13.916-12.009 13.916-8.7937 0 1.5081-24.774 27.41-35.333 36.942-14.612 13.19-41.167 30.693-46.568 30.693-0.94524 0-2.1706-0.76778-2.723-1.7062zm-17.815-51.207c-2.4045-2.5245-0.73415-7.3751 7.2026-20.916 9.5523-16.297 15.477-21.867 28.815-27.093 11.287-4.422 13.451-7.6374 4.4462-6.6072-3.4246 0.39176-6.4709 1.4459-6.7696 2.3426-0.61695 1.8522-5.3862 4.2504-24.108 12.122-10.966 4.6108-14.797 7.3508-23.093 16.513-8.1754 9.0299-10.881 10.985-15.202 10.985-4.7187 0-5.2562-0.51782-5.2562-5.064 0-2.7852 0.84154-7.2498 1.8701-9.9212 1.0285-2.6715 1.7746-6.6261 1.658-8.788-0.14007-2.5959 1.0387-4.4451 3.471-5.4452 2.0257-0.83297 6.5308-4.612 10.011-8.3979 4.6757-5.0859 6.053-7.7938 5.2742-10.37-1.3165-4.3549 1.6796-6.5234 5.007-3.6241 2.1661 1.8875 2.3415 1.5272 1.3254-2.7233-0.99656-4.1688-0.75112-4.7294 1.6475-3.763 2.2451 0.90454 2.607 0.43569 1.7786-2.3044-1.4082-4.6584 2.0045-4.4491 7.2093 0.44221l4.1311 3.8822-2.7926-4.6842c-1.5359-2.5763-2.7926-5.0998-2.7926-5.6077 0-1.8687 3.9306-0.84653 6.6384 1.7263 2.5625 2.4347 2.7241 2.2948 1.9921-1.7254-1.2319-6.7658 3.1413-5.442 8.3469 2.5266l2.8179 4.3136-1.0643-5.6076c-0.64746-3.4112-0.4034-5.6077 0.62311-5.6077 0.9281 0 3.2267 2.5234 5.108 5.6077 3.0695 5.0322 3.4234 5.2092 3.4482 1.7254 0.0163-2.2877 1.0402-3.8822 2.4928-3.8822 1.3558 0 2.4651 0.62804 2.4651 1.3956 0 0.76761 1.1641 2.9028 2.587 4.7449 1.4228 1.8421 2.1187 2.3787 1.5464 1.1925-0.57232-1.1862-0.49222-3.0883 0.17796-4.2268 0.77709-1.3201 2.2488 0.39887 4.0624 4.7449l2.8438 6.815-0.89357-6.4704c-0.52619-3.8102-0.21396-6.4704 0.75945-6.4704 1.899 0 3.7073 8.1002 3.7073 16.607 0 3.2028 0.73953 5.8233 1.6434 5.8233s1.6434 1.4876 1.6434 3.3059c0 3.7168-7.5048 10.316-22.363 19.663-9.9316 6.2482-14.761 12.153-21.818 26.675-3.3011 6.7936-7.6045 9.2883-10.599 6.1442zm22.348-69.567c-2.4997-3.6515-4.7888-6.3832-5.0869-6.0704-1.0762 1.1289 7.0687 14.373 8.3341 13.552 0.71377-0.46314-0.74747-3.8296-3.2472-7.4811zm9.1768 3.4218c-2.4471-7.3701-4.7338-8.1252-2.6107-0.86202 0.97132 3.3228 2.343 6.0415 3.0482 6.0415s0.50831-2.3308-0.43755-5.1795zm-22.76 2.8026c0-0.35829-1.1262-1.6328-2.5027-2.8322-2.0926-1.8234-2.3331-1.7167-1.4676 0.65146 0.88397 2.4186 3.9703 4.1138 3.9703 2.1807zm7.0612-3.4931c-1.624-2.2795-3.1975-3.8989-3.4967-3.5986-1.0262 1.03 3.1241 7.7432 4.7871 7.7432 0.91426 0 0.33359-1.8651-1.2904-4.1446zm23.268 0.26237c-0.61444-2.1352-1.8824-4.6587-2.8177-5.6077-1.16-1.177-1.3625-0.72073-0.637 1.4352 0.58497 1.7383 1.0636 4.2618 1.0636 5.6077 0 1.3458 0.78936 2.447 1.7542 2.447 1.0545 0 1.3086-1.5484 0.63698-3.8822zm316.43 59.82c-4.9713-1.3386-22.535-3.3529-39.031-4.4763-37.571-2.5586-40.863-5.8868-4.2016-4.2477 25.58 1.1436 54.736 6.4009 54.736 9.8696 0 1.9192-0.19297 1.9-11.504-1.1456zm-73.953-27.761c0-1.9374 22.896-6.9836 38.62-8.512 18.506-1.7988 10.84 2.0457-10.565 5.298-10.33 1.5696-20.868 3.2919-23.419 3.8274-2.5502 0.53548-4.6367 0.25947-4.6367-0.61338zm4.9302-5.3927c0-2.7052 9.169-5.4675 27.116-8.169 19.293-2.9041 25.473-3.1311 25.473-0.9357 0 0.88071-4.2523 2.0745-9.4496 2.6528-13.723 1.5271-36.923 5.5411-40.263 6.9661-1.6112 0.68738-2.876 0.46122-2.876-0.51425zm133.45-33.568c-1.6719-4.1839-2.7754-4.7449-9.3321-4.7449-6.3404 0-7.436 0.50845-7.436 3.4509 0 1.898-0.69589 3.4509-1.5464 3.4509-2.4897 0-3.6774-3.2124-2.5574-6.9172 0.89587-2.9635 2.4978-3.4354 11.662-3.4354 11.345 0 13.023 1.2743 11.765 8.933-0.64774 3.9435-0.68866 3.9317-2.5544-0.73722zm-467.95-44.57c-39.334-32.92-98.679-99.92-88.503-99.92 0.54781 0 2.5815 2.1279 4.5194 4.7286 1.9378 2.6007 15.134 18.324 29.324 34.94 23.244 27.217 45.52 49.032 68.587 67.168 4.1267 3.2445 7.765 6.1077 8.0852 6.3625 0.32012 0.25486 0.28995 1.3834-0.067 2.5078-0.36449 1.148-9.987-5.771-21.946-15.781zm8.058-14.175c-4.644-3.98-17.49-14.59-28.546-23.58-25.02-20.34-69.011-67.83-69.011-74.5 0-3.3176 4.3461-1.05 7.7291 4.0327 8.032 12.067 56.987 61.767 78.961 80.161 12.88 10.782 23.419 19.989 23.419 20.46 0 2.5102-5.0563-0.13478-12.552-6.5658zm74.335-72.379c-0.30977-1.1862-1.4909-6.4272-2.6247-11.647-3.2143-14.797-16.06-45.711-41.935-100.92-13.088-27.925-23.797-51.582-23.797-52.571 0-4.9644 3.594 0.26435 15.071 21.927 22.071 41.656 38.325 78.797 49.269 112.58 4.661 14.388 7.848 32.787 5.6793 32.787-0.60475 0-1.353-0.97055-1.6628-2.1568zm-108.92-26.87c-3.7837-2.5351-10.44-6.8751-14.791-9.6444-22.833-14.532-36.562-26.868-41.723-37.489-3.809-7.8389-3.8539-8.3766-0.69994-8.3766 1.3558 0 2.4651 0.72266 2.4651 1.6059 0 2.7609 35.743 35.587 50.236 46.137 12.349 8.989 16.313 12.918 12.624 12.512-0.6779-0.0746-4.3283-2.2098-8.1121-4.7449zm-10.376-21.19c-8.587-6.73-19.515-14.96-24.286-18.3-8.4663-5.92-18.57-17.36-20.582-23.3-2.5011-7.3833 3.4432-3.84 18.203 10.851 8.7904 8.7492 22.04 21.231 29.445 27.737 7.4042 6.5062 13.919 12.605 14.477 13.553 2.34 3.9752-2.541 0.99406-17.257-10.54zm8.8342-8.9314c-2.599-2.24-12.346-9.72-21.659-16.61-14.77-10.92-26.617-23.39-26.617-28.02 0-2.668 3.8339-1.5245 8.0994 2.4157 3.6232 3.3469 3.8077 3.3877 1.3385 0.2955-2.6804-3.3566-4.0171-11.079-1.9176-11.079 0.90468 0 22.379 20.159 41.686 39.131 5.0014 4.9149 8.5452 9.512 7.875 10.216-0.67021 0.70367-2.8796-0.30291-4.9098-2.2368s-9.6075-7.9621-16.838-13.396c-12.653-9.5083-12.866-9.598-5.6668-2.3858 4.1143 4.1217 11.51 11.091 16.434 15.488 4.9245 4.3967 8.4918 8.505 7.9274 9.1294-0.56441 0.62449-3.1528-0.70161-5.7519-2.9469zm5.1347-16.325c-30.728-25.68-35.451-30.04-39.208-36.21-6.2272-10.232-3.1446-10.277 6.9484-0.10116 5.0884 5.1299 14.059 13.661 19.934 18.958 19.659 17.725 26.752 24.969 26.11 26.664-0.35059 0.92551-6.5537-3.2619-13.785-9.3053zm20.928 0.3446c-0.78167-1.4665-13.39-15.38-28.02-30.92-25.083-26.644-29.207-31.98-24.717-31.98 4.6909 0 57.281 58.949 57.281 64.207 0 2.3557-3.0618 1.4754-4.5447-1.3067zm-21.75-13.99c-29.869-27.803-39.226-38.549-33.566-38.549 2.6902 0 50 47.635 50 50.344 0 2.9045-2.806 0.89063-16.434-11.795zm3.4526-21.391c-26.027-27.9-29.151-31.8-26.743-33.37 1.5273-0.99104 36.928 36.219 46.966 49.367 13.145 17.217 4.0386 10.012-20.223-16.001zm219.54 11.743c-14.559-9.3212-25.075-18.139-23.546-19.744 0.47715-0.50094 5.1614 2.5596 10.409 6.8012 5.2481 4.2416 13.779 10.198 18.957 13.237 9.0917 5.3356 12.936 8.7645 9.8251 8.7645-0.82315 0-7.8637-4.0763-15.646-9.0585zm4.5984-6.6526c-10.408-5.7734-23.99-17.087-22.847-19.03 0.62745-1.0659 2.781-0.0686 5.3848 2.4937 6.7228 6.6158 22.704 16.718 26.446 16.718 1.8512 0 3.3658 0.77644 3.3658 1.7254 0 2.8065-5.3382 1.9819-12.35-1.9076zm68.664-12.327c-0.88401-1.1862-2.0172-3.914-2.5181-6.0616-1.2874-5.519 3.1814-7.4902 16.132-7.1161 6.3035 0.18207 11.556-0.50964 12.658-1.667 2.5036-2.6286 6.1599-2.5223 6.1458 0.17856-0.0134 2.5634-9.8488 9.9212-13.262 9.9212-1.3133 0-5.1474 1.5529-8.5202 3.4509-7.1722 4.0359-8.4747 4.1944-10.636 1.2941zm-22.198-24.914c-9.315-8.1435-10.549-11.748-4.8357-14.129 17.592-7.3306 39.571-11.705 44.603-8.8775 2.1115 1.1864 4.5587 1.1994 7.4645 0.0394 5.3596-2.1394 5.7525-2.1398 5.7525-5e-3 0 2.9119-10.345 6.6063-13.599 4.8567-2.5161-1.3528-25.047 0.64231-26.69 2.3635-0.60007 0.62837 32.84 3e-3 37.824-0.7077 2.898-0.41307 3.2868 0.52564 3.2868 7.9357 0 12.971-2.805 14.48-27.085 14.57l-19.722 0.0734-6.9999-6.1196zm4.8806-11.931c-0.54609-0.57334-1.9635-0.63463-3.1499-0.13621-1.311 0.5508-0.92159 0.95966 0.99289 1.0424 1.7324 0.0749 2.7031-0.33287 2.157-0.90623zm-35.71 5.3006c0-5.5339 4.2359-16.336 6.4059-16.336 0.95375 0 0.64412 2.511-0.73786 5.9836-1.3097 3.291-2.3812 7.9496-2.3812 10.353 0 2.403-0.73954 4.369-1.6434 4.369-0.90387 0-1.6434-1.966-1.6434-4.369zm7.4701 2.7706c-1.2381-2.1033 5.1616-19.961 8.058-22.484 3.4174-2.9777 4.7653 0.83792 1.9379 5.4855-1.3153 2.162-3.3119 7.2309-4.4369 11.264-2.0055 7.1897-3.6835 8.9207-5.559 5.7347zm79.63-11.219c0-1.3557 1.2942-3.8237 2.876-5.4844 2.7141-2.8496 2.9067-2.8519 3.4225-0.0404 0.5728 3.1223-2.3857 7.9897-4.8563 7.9897-0.79321 0-1.4422-1.1092-1.4422-2.4649zm-24.65-16.78c0-1.0054-1.1927-1.3475-2.6504-0.76024-1.4577 0.5873-5.1554-0.55762-8.217-2.5443-4.907-3.1841-5.5666-4.477-5.5666-10.91 0-7.6453 4.4166-14.851 9.1028-14.851 3.1008 0 3.0706 2.445-0.064 5.1763-1.3558 1.1814-2.4651 3.5497-2.4651 5.2629 0 2.7286 1.0768 2.9982 8.683 2.174 7.6751-0.83167 9.2765-0.41664 13.795 3.5756 6.1546 5.4372 6.0592 5.43 11.892 0.90226 4.614-3.5815 4.6356-3.6853 2.3986-11.49-2.6291-9.1718-2.9967-22.856-0.61406-22.856 0.90388 0 1.6434 2.6199 1.6434 5.8221 0 3.2021 1.0611 8.9796 2.358 12.839 3.5397 10.533 2.8474 16.985-2.1965 20.468-2.3485 1.6215-6.0584 2.7961-8.2442 2.6103s-5.2508 0.87515-6.811 2.3576c-3.3772 3.2089-13.044 4.8568-13.044 2.2237zm1.6434-12.875c0-0.36381-1.4791-0.66148-3.2868-0.66148-1.8078 0-3.2868 0.70376-3.2868 1.5639 0 0.86015 1.4791 1.1578 3.2868 0.66148 1.8078-0.49634 3.2868-1.2001 3.2868-1.5639zm-90.593-9.7118c-1.9576-4.0287-7.5191-12.226-12.359-18.215-4.8398-5.9897-8.7997-12.464-8.7997-14.387 0-4.8801 1.1206-4.0445 14.208 10.595 11.329 12.672 16.16 21.72 14.306 26.793-1.5509 4.2434-3.6239 2.8949-7.3558-4.7854zm88.137-6.468c-1.641-1.9038-2.22-3.4614-1.2868-3.4614 2.0678 0 6.1667 4.9319 5.0625 6.0913-0.43564 0.45738-2.1347-0.72606-3.7757-2.6298zm3.2686-1.7466c-1.641-1.9038-2.4997-3.9696-1.9082-4.5906 1.1984-1.2582 7.6692 4.3054 7.6692 6.594 0 2.5189-2.6604 1.5937-5.761-2.0034zm36.444-18.388c-0.59933-0.62925 1.225-2.622 4.054-4.4283 5.8536-3.7375 10.127-1.7957 6.4061 2.9111-2.1311 2.6959-8.4627 3.6143-10.46 1.5172zm-171-2.5023c-6.4351-1.8378-12.522-8.1727-12.522-13.033 0-2.2687 2.1336-5.9954 4.9302-8.6116 4.857-4.5437 6.5292-11.428 3.2868-13.532-0.90387-0.58651-1.6434-3.1344-1.6434-5.662v-4.5957l-2.5583 3.8348c-2.4498 3.6722-7.2331 5.0575-9.4448 2.7355-1.8051-1.8952 5.4953-10.979 8.8234-10.979 3.5091 0 16.333 11.345 16.317 14.436-6e-3 1.0758-1.1109 4.1721-2.4564 6.8805-1.3455 2.7085-2.071 5.562-1.6124 6.3411 0.45862 0.7791 8e-3 3.3198-1.0016 5.6459-1.4705 3.3885-1.2842 5.1126 0.93689 8.6716 4.0158 6.4348 2.809 9.5421-3.0557 7.8672zm135.52-6.8196c-2.0654-3.8583-4.186-6.563-4.7124-6.0102-0.52643 0.55269-0.082 1.9237 0.98757 3.0467 2.6461 2.7782 2.4446 4.8024-0.47821 4.8024-1.3326 0-3.6012-2.3923-5.0413-5.3162-1.5137-3.0733-3.5271-4.95-4.7722-4.4484-1.1846 0.47726-2.9834-3e-3 -3.9974-1.0679-1.014-1.0646-1.8437-1.2837-1.8437-0.48674 0 0.79691 1.2223 2.3873 2.7162 3.5342 3.2811 2.519 1.6134 6.0596-2.8543 6.0596-2.2752 0-3.5226-1.5312-4.217-5.1763-1.236-6.4885-2.3184-6.4865-5.8398 0.0109-2.9462 5.436-7.255 6.5629-12.921 3.3793-1.7483-0.98237-3.1788-2.9235-3.1788-4.3136s-1.4791-2.5274-3.2868-2.5274c-4.3785 0-4.1435 1.7242 0.81449 5.9742 2.9387 2.5191 3.6729 4.2181 2.5899 5.9936-3.0659 5.0266-21.482-6.8555-21.482-13.86 0-2.0877 2.9224-4.0033 9.8604-6.4632 8.03-2.8471 9.8604-3.0428 9.8604-1.054 0 1.3432-1.8833 2.9384-4.185 3.5449-2.3018 0.60656-3.8408 1.4643-3.42 1.9061 0.82014 0.86108 32.617-4.4897 33.763-5.6816 0.3766-0.39184-3.506-0.71246-8.6279-0.71246-9.2169 0-12.834-2.8071-6.0258-4.6764 4.8999-1.3453 4.0065-3.2747-2.876-6.2107-5.3455-2.2804-6.6455-2.3048-9.8026-0.18453-2.0019 1.3444-6.0694 2.4691-9.0387 2.4993-2.9694 0.0302-6.8028 1.1706-8.5187 2.5342-2.5796 2.0501-2.7582 2.9368-1.0313 5.1214 3.6648 4.6362-2.5016 3.182-7.6719-1.8092-4.3139-4.1645-4.3727-4.3973-0.91334-3.6124 2.0337 0.4614 3.6977 0.0833 3.6977-0.84011 0-0.92347 1.9366-4.3448 4.3036-7.6029 3.3446-4.6039 5.4924-5.9239 9.6388-5.9239 2.9344 0 7.2572-1.5873 9.6063-3.5273 4.0658-3.3578 4.523-3.3905 9.5137-0.68087 2.8835 1.5655 8.1402 5.0501 11.682 7.7436 3.5414 2.6934 10.128 6.1836 14.636 7.7558 7.5182 2.6218 8.4383 2.6298 11.104 0.0973 1.5984-1.5188 3.7288-2.7614 4.7341-2.7614 3.3391 0 3.8299-3.288 1.2673-8.4908-3.1749-6.4459-3.1804-7.6684-0.0291-6.3988 2.0215 0.81442 2.1787 0.37207 0.81725-2.2988-1.1678-2.2909-1.1458-3.6577 0.0713-4.4475 2.2053-1.431 2.2821-1.3361 5.4859 6.7783 1.8438 4.6699 2.1376 7.3578 0.96606 8.8398-0.92584 1.1713-1.2217 3.3926-0.65748 4.9364 0.59142 1.6182 0.2019 2.8068-0.91976 2.8068-1.0701 0-4.2857 2.4569-7.1458 5.4597-3.4815 3.6553-4.0543 4.8159-1.7331 3.5116 1.9069-1.0715 3.8832-1.5113 4.3917-0.97745 1.1974 1.2572-0.58657 6.3307-2.7617 7.8542-1.1401 0.79857-1.0768 2.4773 0.19525 5.1763 2.6789 5.6839 4.2491 15.21 2.5072 15.21-0.80926 0-3.1612-3.1568-5.2267-7.0152zm-39.579-6.7883c0-0.94899-0.78318-1.7254-1.7404-1.7254s-1.2833 0.77645-0.72471 1.7254c0.55863 0.94898 1.3418 1.7254 1.7404 1.7254 0.39859 0 0.72471-0.77645 0.72471-1.7254zm57.104 3.8822c-1.5119-4.8826-1.9409-8.8584-1.0611-9.835 0.81223-0.90154 1.4768-3.021 1.4768-4.7099 0-4.3539 11.496-10.043 20.295-10.043 4.6787 0 8.6435-1.1603 11.099-3.2482 3.3475-2.8459 3.5825-3.797 1.8974-7.6799-1.0578-2.4374-2.784-11.223-3.8361-19.523-2.3216-18.316-5.3779-26.164-15.021-38.571-4.0589-5.222-8.9093-12.598-10.779-16.392-1.8694-3.7933-4.6334-8.4498-6.1424-10.348-1.509-1.898-0.76213 0.2982 1.6596 4.8804 2.4218 4.5822 3.9128 8.8462 3.3134 9.4755-0.59941 0.62931-1.8839-0.34549-2.8544-2.1663-0.97052-1.8208-4.2666-6.0848-7.3247-9.4755l-5.5602-6.165 5.2394 9.0768c5.6625 9.8099 5.3702 14.284-0.42759 6.5453-7.4013-9.8788-27.326-26.901-35.562-30.382-4.6568-1.968-6.2851-6.0701-3.705-9.3341 2.8409-3.5939 15.562-5.1955 21.333-2.6859 4.9162 2.138 12.494 3.548 19.802 3.6848 6.4145 0.12006 11.098 5.9583 12.331 15.371 0.61776 4.7158 2.1004 8.7339 3.4187 9.265 1.2842 0.5174 2.3278 3.2324 2.3278 6.056 0 7.5913 2.2318 12.481 9.9922 21.891 9.3515 11.339 12.891 20.369 15.412 39.319 1.1611 8.7281 3.6519 19.04 5.535 22.916 2.8934 5.9547 3.1606 8.0832 1.7243 13.738-1.8704 7.3641-5.2639 11.005-10.256 11.005-3.0912 0-3.0606-0.22199 0.59448-4.3068 4.6102-5.1523 3.7327-6.792-2.3381-4.3687-2.4439 0.97554-7.6972 1.7737-11.674 1.7737-5.2085 0-7.6578 0.84439-8.7585 3.0195-1.3226 2.6137-0.68355 3.0533 4.7551 3.271 4.7627 0.1906 6.0701-0.33129 5.4029-2.1568-1.3104-3.5854 0.87129-2.9302 6.3448 1.9053 2.6855 2.3725 6.305 4.3136 8.0434 4.3136s3.1607 1.0676 3.1607 2.3725c0 2.785-9.8038 5.2789-11.939 3.0372-0.85407-0.8967-3.1296 0.21536-5.4711 2.6737-2.9339 3.0804-4.9931 3.8914-7.6792 3.0248-5.1598-1.6648-5.4463-2.2058-3.1833-6.0103 2.2725-3.8205 1.5488-4.176-3.1391-1.5419-2.2346 1.2556-2.9401 2.8813-2.2463 5.1763 0.67709 2.2398 0.2391 3.3458-1.325 3.3458-1.3356 0-3.4237-3.511-4.8744-8.1958zm-95.606-15.221c-1.7404-1.3361-2.646-2.9734-2.0126-3.6384 0.63345-0.66507 2.3843 0.0849 3.8907 1.6665 3.5478 3.7248 2.2204 5.1185-1.8782 1.9719zm31.929-37.792c-2.2597-1.3316-6.8818-2.9252-10.271-3.5414-6.9522-1.2638-8.361-4.2678-2.0015-4.2678 4.7458 0 13.183 3.5227 18.025 7.5254 4.2776 3.5366 0.1163 3.7419-5.7519 0.2838zm2.8138-6.0319c-5.2315-2.6729-11.148-5.4132-13.147-6.0896-3.1974-1.0816-3.2777-1.3292-0.66666-2.0549 2.7979-0.77762 27.434 10.287 27.434 12.321 0 1.9009-4.3151 0.57764-13.62-4.1767z"/>
 </g>
</svg>
